<svg width="91" height="40" viewBox="0 0 91 40" fill="none" xmlns="http://www.w3.org/2000/svg">
<path d="M51.5236 23.4656C51.5236 22.9656 51.3126 22.6906 50.9861 22.4937C50.6579 22.3062 50.2611 22.2828 49.7204 22.2828H47.3095V26.6891H48.3642V25.0844H49.4892C49.8642 25.0844 50.0986 25.1219 50.2361 25.2797C50.4236 25.4828 50.3986 25.8734 50.3986 26.1391V26.6859H51.4298V25.8188C51.4267 25.4281 51.4033 25.2313 51.2611 25.0125C51.1259 24.8457 50.9476 24.7192 50.7454 24.6469L50.7767 24.6344C51.005 24.5385 51.199 24.3756 51.3329 24.1672C51.4668 23.9588 51.5343 23.7148 51.5267 23.4672L51.5236 23.4656ZM50.1642 24.1016L50.1204 24.0984C49.9798 24.1812 49.8158 24.1891 49.6048 24.1891H48.3392V23.2047H49.6267C49.8142 23.2047 50.0017 23.2047 50.1423 23.2828C50.2164 23.3186 50.2783 23.3755 50.32 23.4464C50.3617 23.5174 50.3815 23.5991 50.3767 23.6812C50.3767 23.8687 50.3064 24.0172 50.1673 24.1031L50.1642 24.1016ZM58.2142 25.7453H56.1877V26.6828H58.2252C59.2814 26.6828 59.8658 26.2484 59.8658 25.3016C59.8658 24.8641 59.7627 24.6016 59.5736 24.3922C59.3346 24.1844 58.9611 24.0906 58.433 24.0688L57.8455 24.0453C57.683 24.0453 57.5642 24.0453 57.447 23.9984C57.3773 23.9772 57.3166 23.9335 57.2742 23.8741C57.2318 23.8148 57.2102 23.7432 57.2127 23.6703C57.2127 23.5297 57.2392 23.4109 57.3533 23.3422C57.4831 23.2709 57.6306 23.2384 57.7783 23.2484H59.7002V22.3078H57.5908C56.4908 22.3078 56.0939 22.9906 56.0939 23.6203C56.0939 25.0266 57.3064 24.9563 58.2924 24.9797C58.4549 24.9797 58.5736 25.0031 58.6439 25.0734C58.7158 25.1203 58.772 25.2391 58.772 25.3547C58.772 25.475 58.7174 25.5891 58.647 25.6359C58.5533 25.7188 58.4127 25.7453 58.2142 25.7453ZM26.5 1V16.775L27.7656 13.8438H30.5L30.8516 14.5688V13.8438H34.0438L34.7469 15.4375L35.4297 13.8547H45.5892C46.0501 13.8547 46.4642 13.9438 46.7704 14.2234V13.8641H49.5626V14.2234C50.0423 13.9578 50.6345 13.8641 51.3126 13.8641H55.3845L55.7595 14.5922V13.8641H58.7564L59.1533 14.5906V13.8625H62.0564V20.0312H59.1096L58.5471 19.0938V20.0078H54.8705L54.4705 19.0234H53.5595L53.1376 19.9828H51.2423C50.4923 19.9828 49.9298 19.8203 49.5548 19.6078V19.9828H45.0392V18.6016C45.0392 18.4141 44.9923 18.4141 44.8751 18.3906H44.711V20.0094H35.9797V19.2594L35.6516 20.0094H33.8282L33.5125 19.2594V19.9859H29.9922L29.5922 19.0109H28.6875L28.2875 19.9859H26.5V38.5H63.6658V27.3938C63.2439 27.6047 62.708 27.675 62.1455 27.675H59.4533V27.2766C59.1252 27.5344 58.5627 27.675 58.0252 27.675H49.4845V26.2688C49.4845 26.0813 49.4564 26.0812 49.297 26.0812H49.1798V27.6781H46.3673V26.0125C45.9017 26.225 45.3626 26.2469 44.9173 26.225H44.5829V27.6547H41.1766L40.3329 26.6906L39.4423 27.6281H33.9094V21.4875H39.5501L40.3595 22.4281L41.2251 21.4906H44.9939C45.4314 21.4906 46.1501 21.5375 46.4657 21.8422V21.4672H49.8673C50.1829 21.4672 50.8736 21.5375 51.2783 21.8188V21.4437H56.3798V21.8188C56.6345 21.5625 57.1736 21.4437 57.6345 21.4437H60.5877V21.8188C60.8908 21.5844 61.3127 21.4437 61.9002 21.4437H63.7377V1H26.5ZM59.5564 24.3672C59.5627 24.375 59.5674 24.3859 59.5736 24.3922C59.5892 24.4078 59.6096 24.4078 59.6221 24.4234L59.5564 24.3687V24.3672ZM63.7314 21.4406H63.833V22.3078H63.7314V21.4406ZM63.7893 24.4844V24.4766C63.7424 24.4375 63.7174 24.4016 63.6721 24.3672C63.4377 24.1281 63.0627 24.0312 62.4783 24.0156L61.9158 23.9969C61.7736 24.0032 61.6313 23.9873 61.4939 23.95C61.4242 23.9287 61.3634 23.885 61.3211 23.8257C61.2787 23.7664 61.2571 23.6947 61.2596 23.6219C61.2596 23.4812 61.3064 23.3719 61.4002 23.3031C61.5189 23.2328 61.6346 23.225 61.8221 23.225H63.733V22.3062H61.7283C60.6502 22.3062 60.2283 22.9891 60.2283 23.6187C60.2283 25.025 61.4471 24.9547 62.4314 24.9781C62.5939 24.9781 62.7127 25.0016 62.7814 25.0719C62.8533 25.1187 62.9002 25.2375 62.9002 25.3531C62.9002 25.4625 62.8471 25.5688 62.7596 25.6344C62.6893 25.7219 62.5471 25.7438 62.3377 25.7438H60.3252V26.6891H62.3361C62.9924 26.6891 63.483 26.5047 63.7424 26.1266H63.7893C63.9299 25.9172 64.0002 25.6578 64.0002 25.3094C64.0002 24.9344 63.9299 24.7 63.7893 24.4875V24.4844ZM55.558 23.2V22.2891H52.0658V26.7156H55.558V25.8016H53.1048V24.9109H55.5002V23.9984H53.1064V23.2016M47.6095 14.7297H48.6798V19.125H47.6111L47.6095 14.7297ZM47.0095 15.9109L46.9985 15.9203C46.9985 15.4297 46.7954 15.1391 46.4673 14.9453C46.1282 14.75 45.7329 14.7344 45.2017 14.7344H42.797V19.1406H43.8501V17.525H44.9751C45.3501 17.525 45.5845 17.5719 45.736 17.7125C45.9267 17.925 45.9032 18.3031 45.9032 18.5688V19.1219H46.961V18.2578C46.961 17.8672 46.936 17.6719 46.7892 17.4516C46.6525 17.2853 46.4748 17.1576 46.2735 17.0812C46.5423 16.9719 47.011 16.6125 47.011 15.9094L47.0095 15.9109ZM45.6735 16.5297H45.6501C45.5095 16.6141 45.3454 16.6172 45.1345 16.6172H43.8438V15.6437H45.1329C45.3204 15.6437 45.5079 15.65 45.6485 15.7219C45.7892 15.7844 45.8829 15.9219 45.8829 16.1125C45.8829 16.3031 45.8095 16.4562 45.6735 16.5281V16.5297ZM51.3751 15.6453H52.3626V14.7078H51.3564C50.6314 14.7078 50.1001 14.8719 49.7626 15.2234C49.3157 15.6922 49.197 16.3016 49.197 16.9578C49.197 17.7578 49.3892 18.2594 49.7595 18.6359C50.122 19.0078 50.7673 19.1203 51.2751 19.1203H52.4939L52.8923 18.1406H55.0642L55.4736 19.1203H57.5986V15.8234L59.5861 19.1203H61.0705L61.0736 19.1234V14.7281H60.0049V17.7953L58.1611 14.7328H56.5674V18.8125L54.797 14.6625H53.2283L51.7548 18.1313H51.2861C51.0095 18.1313 50.7204 18.0844 50.5548 17.9219C50.3595 17.6875 50.2642 17.3594 50.2642 16.8875C50.2642 16.4422 50.3892 16.0906 50.5673 15.9031C50.7751 15.6922 50.9923 15.6453 51.3736 15.6453H51.3751ZM53.9814 15.4766L54.7064 17.2234V17.2266H53.2533L53.9814 15.4766ZM30.2188 18.1406L30.6156 19.1219H32.75V15.6766L34.2688 19.1219H35.1813L36.7016 15.6812L36.7251 19.1219H37.8032V14.7312H36.0594L34.7985 17.7063L33.4297 14.7297H31.7235V18.8906L29.9453 14.7297H28.3875L26.5156 19.1203H27.6406L28.0469 18.1422L30.2188 18.1406ZM29.1438 15.4766L29.8625 17.2234L29.8578 17.2266H28.4281L29.1422 15.4766H29.1438ZM45.0251 22.2812H41.6782L40.3501 23.7234L39.061 22.2828H34.8532V26.6891H39.0001L40.336 25.2328L41.6235 26.6859H43.6579V25.2172H44.9673C45.9048 25.2172 46.7954 24.9609 46.7954 23.7406L46.786 23.7359C46.786 22.5172 45.8517 22.2828 45.0235 22.2828L45.0251 22.2812ZM38.4844 25.7703L38.4626 25.7672H35.9063V24.8969H38.2032V24H35.9063V23.2031H38.5313L39.6766 24.4844L38.4829 25.7719L38.4844 25.7703ZM42.6126 26.2859L41.0032 24.4937L42.6126 22.7625V26.2828V26.2859ZM45.0392 24.3203H43.6563V23.2H45.0392C45.4142 23.2 45.6954 23.3531 45.6954 23.7375C45.6954 24.1172 45.461 24.3188 45.0392 24.3188V24.3203ZM42.0735 15.6453V14.7297H38.5782V19.125H42.0735V18.2188H39.6251V17.3375H42.011V16.4375H39.6251V15.6453" fill="#949494"/>
</svg>
