<svg width="91" height="40" viewBox="0 0 91 40" fill="none" xmlns="http://www.w3.org/2000/svg">
<g clip-path="url(#clip0_1816_50615)">
<path d="M16.9465 5.81551C15.8888 7.07939 14.2011 8.07324 12.5135 7.93073C12.3034 6.2243 13.1285 4.41286 14.0961 3.29149C15.1538 1.99385 16.999 1.07501 18.4916 1C18.6679 2.77769 17.9816 4.51787 16.9465 5.81551ZM18.4729 8.26826C16.0314 8.12575 13.9349 9.67466 12.7797 9.67466C11.5983 9.67466 9.82439 8.33952 7.88916 8.37703C5.37637 8.41453 3.03985 9.85093 1.7572 12.1462C-0.883104 16.7292 1.07087 23.5211 3.61742 27.2528C4.86631 29.1017 6.36274 31.1269 8.33172 31.0557C10.1919 30.9844 10.9308 29.8293 13.181 29.8293C15.45 29.8293 16.0989 31.0557 18.0716 31.0219C20.1081 30.9844 21.3907 29.173 22.6396 27.324C24.0648 25.2238 24.6461 23.1836 24.6799 23.0748C24.6424 23.0373 20.7419 21.5297 20.7044 16.9804C20.6706 13.1738 23.7798 11.3623 23.9223 11.2573C22.1671 8.62455 19.4218 8.33952 18.4729 8.26826ZM32.5933 3.11522V30.8269H36.85V21.3534H42.7382C48.1163 21.3534 51.8968 17.618 51.8968 12.2174C51.8968 6.81311 48.1876 3.11522 42.8807 3.11522H32.5895H32.5933ZM36.85 6.74186H41.7556C45.446 6.74186 47.5538 8.72956 47.5538 12.2324C47.5538 15.7353 45.446 17.7455 41.7368 17.7455H36.8463V6.7381L36.85 6.74186ZM59.6677 31.0369C62.3417 31.0369 64.8208 29.6718 65.9459 27.5003H66.0322V30.8269H69.9701V17.0329C69.9701 13.035 66.8048 10.4547 61.9367 10.4547C57.4174 10.4547 54.0795 13.0688 53.9558 16.6579H57.7887C58.1037 14.9515 59.6677 13.8339 61.8129 13.8339C64.4157 13.8339 65.8746 15.0602 65.8746 17.318V18.8444L60.564 19.1669C55.6247 19.4669 52.9506 21.5109 52.9506 25.0663C52.9506 28.6554 55.711 31.0369 59.6677 31.0369ZM60.8116 27.7516C58.5425 27.7516 57.0986 26.649 57.0986 24.9613C57.0986 23.2173 58.49 22.2047 61.1453 22.0435L65.8709 21.7434V23.3073C65.8709 25.9026 63.6994 27.7516 60.8116 27.7516ZM75.2282 38.3652C79.3762 38.3652 81.3264 36.7638 83.0291 31.9108L90.5 10.721H86.1758L81.1652 27.0915H81.0789L76.0683 10.721H71.6203L78.8249 30.8981L78.4386 32.1245C77.7898 34.2022 76.7359 35.0011 74.8532 35.0011C74.436 34.9961 74.0193 34.9723 73.6043 34.9298V38.2564C73.8518 38.3277 74.9057 38.3614 75.2245 38.3614L75.2282 38.3652Z" fill="#949494"/>
</g>
<defs>
<clipPath id="clip0_1816_50615">
<rect width="90" height="40" fill="white" transform="translate(0.5)"/>
</clipPath>
</defs>
</svg>
