<svg width="108" height="107" viewBox="0 0 108 107" fill="none" xmlns="http://www.w3.org/2000/svg">
<g clip-path="url(#clip0_2096_15725)">
<rect width="107.023" height="107" rx="3.03611" fill="black"/>
<path d="M53.5 113.193C83.0472 113.193 107 113.024 107 112.815C107 112.606 83.0472 112.437 53.5 112.437C23.9528 112.437 0 112.606 0 112.815C0 113.024 23.9528 113.193 53.5 113.193ZM53.5 113.193C83.0472 113.193 107 112.935 107 112.616C107 112.297 83.0472 112.039 53.5 112.039C23.9528 112.039 0 112.297 0 112.616C0 112.935 23.9528 113.193 53.5 113.193ZM53.5 113.193C83.0472 113.193 107 112.906 107 112.552C107 112.198 83.0472 111.911 53.5 111.911C23.9528 111.911 0 112.198 0 112.552C0 112.906 23.9528 113.193 53.5 113.193ZM53.5 113.193C83.0472 113.193 107 112.799 107 112.314C107 111.828 83.0472 111.435 53.5 111.435C23.9528 111.435 0 111.828 0 112.314C0 112.799 23.9528 113.193 53.5 113.193ZM53.5 113.195C83.0472 113.195 107 113.006 107 112.774C107 112.541 83.0472 112.353 53.5 112.353C23.9528 112.353 0 112.541 0 112.774C0 113.006 23.9528 113.195 53.5 113.195ZM53.5 113.195C83.0472 113.195 107 112.985 107 112.727C107 112.469 83.0472 112.259 53.5 112.259C23.9528 112.259 0 112.469 0 112.727C0 112.985 23.9528 113.195 53.5 113.195ZM53.5 113.193C83.0472 113.193 107 112.961 107 112.675C107 112.389 83.0472 112.156 53.5 112.156C23.9528 112.156 0 112.389 0 112.675C0 112.961 23.9528 113.193 53.5 113.193ZM53.5 113.193C83.0472 113.193 107 112.875 107 112.482C107 112.089 83.0472 111.77 53.5 111.77C23.9528 111.77 0 112.089 0 112.482C0 112.875 23.9528 113.193 53.5 113.193ZM53.5 113.193C83.0472 113.193 107 112.839 107 112.402C107 111.965 83.0472 111.611 53.5 111.611C23.9528 111.611 0 111.965 0 112.402C0 112.839 23.9528 113.193 53.5 113.193ZM53.5 113.189C83.0472 113.189 107 112.65 107 111.984C107 111.319 83.0472 110.78 53.5 110.78C23.9528 110.78 0 111.319 0 111.984C0 112.65 23.9528 113.189 53.5 113.189ZM53.5 113.189C83.0472 113.189 107 112.366 107 111.351C107 110.336 83.0472 109.513 53.5 109.513C23.9528 109.513 0 110.336 0 111.351C0 112.366 23.9528 113.189 53.5 113.189ZM53.5 113.189C83.0472 113.189 107 112.59 107 111.85C107 111.111 83.0472 110.511 53.5 110.511C23.9528 110.511 0 111.111 0 111.85C0 112.59 23.9528 113.189 53.5 113.189ZM53.5 113.189C83.0472 113.189 107 112.523 107 111.702C107 110.881 83.0472 110.215 53.5 110.215C23.9528 110.215 0 110.881 0 111.702C0 112.523 23.9528 113.189 53.5 113.189ZM53.5 113.187C83.0472 113.187 107 112.273 107 111.146C107 110.019 83.0472 109.106 53.5 109.106C23.9528 109.106 0 110.019 0 111.146C0 112.273 23.9528 113.187 53.5 113.187ZM53.5 113.187C83.0472 113.187 107 112.171 107 110.918C107 109.665 83.0472 108.65 53.5 108.65C23.9528 108.65 0 109.665 0 110.918C0 112.171 23.9528 113.187 53.5 113.187ZM53.5 113.175C83.0472 113.175 107 110.817 107 107.907C107 104.998 83.0472 102.639 53.5 102.639C23.9528 102.639 0 104.998 0 107.907C0 110.817 23.9528 113.175 53.5 113.175ZM53.5 113.175C83.0472 113.175 107 110.554 107 107.321C107 104.087 83.0472 101.466 53.5 101.466C23.9528 101.466 0 104.087 0 107.321C0 110.554 23.9528 113.175 53.5 113.175ZM107 112.215C107 112.754 83.0472 113.191 53.5 113.191C23.9528 113.191 0 112.754 0 112.215C0 111.675 23.9528 111.238 53.5 111.238C83.0472 111.238 107 111.675 107 112.215ZM107 112.105C107 112.705 83.0472 113.191 53.5 113.191C23.9528 113.191 0 112.705 0 112.105C0 111.506 23.9528 111.02 53.5 111.02C83.0472 111.02 107 111.506 107 112.105ZM107 111.537C107 112.449 83.0472 113.189 53.5 113.189C23.9528 113.189 0 112.449 0 111.537C0 110.624 23.9528 109.884 53.5 109.884C83.0472 109.884 107 110.624 107 111.537ZM107 110.665C107 112.057 83.0472 113.185 53.5 113.185C23.9528 113.185 0 112.057 0 110.665C0 109.273 23.9528 108.145 53.5 108.145C83.0472 108.145 107 109.273 107 110.665ZM107 110.385C107 111.931 83.0472 113.185 53.5 113.185C23.9528 113.185 0 111.931 0 110.385C0 108.838 23.9528 107.584 53.5 107.584C83.0472 107.584 107 108.838 107 110.385ZM107 110.073C107 111.79 83.0472 113.183 53.5 113.183C23.9528 113.183 0 111.79 0 110.073C0 108.355 23.9528 106.962 53.5 106.962C83.0472 106.962 107 108.355 107 110.073ZM107 109.726C107 111.635 83.0472 113.183 53.5 113.183C23.9528 113.183 0 111.635 0 109.726C0 107.816 23.9528 106.268 53.5 106.268C83.0472 106.268 107 107.816 107 109.726ZM107 109.34C107 111.462 83.0472 113.182 53.5 113.182C23.9528 113.182 0 111.462 0 109.34C0 107.219 23.9528 105.499 53.5 105.499C83.0472 105.499 107 107.219 107 109.34ZM107 108.911C107 111.269 83.0472 113.18 53.5 113.18C23.9528 113.18 0 111.269 0 108.911C0 106.554 23.9528 104.643 53.5 104.643C83.0472 104.643 107 106.554 107 108.911ZM107 108.435C107 111.054 83.0472 113.177 53.5 113.177C23.9528 113.177 0 111.054 0 108.435C0 105.817 23.9528 103.694 53.5 103.694C83.0472 103.694 107 105.817 107 108.435ZM107 106.668C107 110.26 83.0472 113.172 53.5 113.172C23.9528 113.172 0 110.26 0 106.668C0 103.076 23.9528 100.164 53.5 100.164C83.0472 100.164 107 103.076 107 106.668ZM107 105.941C107 109.932 83.0472 113.167 53.5 113.167C23.9528 113.167 0 109.932 0 105.941C0 101.949 23.9528 98.7137 53.5 98.7137C83.0472 98.7137 107 101.949 107 105.941ZM107 105.136C107 109.57 83.0472 113.166 53.5 113.166C23.9528 113.166 0 109.57 0 105.136C0 100.701 23.9528 97.1058 53.5 97.1058C83.0472 97.1058 107 100.701 107 105.136ZM107 104.239C107 109.167 83.0472 113.162 53.5 113.162C23.9528 113.162 0 109.167 0 104.239C0 99.3114 23.9528 95.3166 53.5 95.3166C83.0472 95.3166 107 99.3114 107 104.239ZM107 103.245C107 108.721 83.0472 113.159 53.5 113.159C23.9528 113.159 0 108.721 0 103.245C0 97.7692 23.9528 93.3303 53.5 93.3303C83.0472 93.3303 107 97.7692 107 103.245ZM107 102.141C107 108.224 83.0472 113.156 53.5 113.156C23.9528 113.156 0 108.224 0 102.141C0 96.0567 23.9528 91.1248 53.5 91.1248C83.0472 91.1248 107 96.0567 107 102.141ZM107 100.911C107 107.671 83.0472 113.15 53.5 113.15C23.9528 113.15 0 107.671 0 100.911C0 94.1509 23.9528 88.671 53.5 88.671C83.0472 88.671 107 94.1509 107 100.911ZM107 99.5459C107 107.056 83.0472 113.144 53.5 113.144C23.9528 113.144 0 107.056 0 99.5459C0 92.0359 23.9528 85.9478 53.5 85.9478C83.0472 85.9478 107 92.0359 107 99.5459ZM107 98.0298C107 106.375 83.0472 113.14 53.5 113.14C23.9528 113.14 0 106.375 0 98.0298C0 89.6844 23.9528 82.9192 53.5 82.9192C83.0472 82.9192 107 89.6844 107 98.0298ZM107 96.3458C107 105.618 83.0472 113.135 53.5 113.135C23.9528 113.135 0 105.618 0 96.3458C0 87.0737 23.9528 79.5572 53.5 79.5572C83.0472 79.5572 107 87.0737 107 96.3458ZM107 94.4729C107 104.775 83.0472 113.127 53.5 113.127C23.9528 113.127 0 104.775 0 94.4729C0 84.1707 23.9528 75.8191 53.5 75.8191C83.0472 75.8191 107 84.1707 107 94.4729ZM107 92.3936C107 103.841 83.0472 113.121 53.5 113.121C23.9528 113.121 0 103.841 0 92.3936C0 80.9461 23.9528 71.666 53.5 71.666C83.0472 71.666 107 80.9461 107 92.3936ZM107 90.0817C107 102.8 83.0472 113.111 53.5 113.111C23.9528 113.111 0 102.8 0 90.0817C0 77.363 23.9528 67.0524 53.5 67.0524C83.0472 67.0524 107 77.363 107 90.0817ZM107 87.5132C107 101.645 83.0472 113.102 53.5 113.102C23.9528 113.102 0 101.645 0 87.5132C0 73.3811 23.9528 61.9248 53.5 61.9248C83.0472 61.9248 107 73.3811 107 87.5132ZM107 84.6598C107 100.362 83.0472 113.092 53.5 113.092C23.9528 113.092 0 100.362 0 84.6598C0 68.9572 23.9528 56.2278 53.5 56.2278C83.0472 56.2278 107 68.9572 107 84.6598ZM107 81.4887C107 98.9361 83.0472 113.08 53.5 113.08C23.9528 113.08 0 98.9361 0 81.4887C0 64.0413 23.9528 49.8974 53.5 49.8974C83.0472 49.8974 107 64.0413 107 81.4887ZM107 77.9649C107 97.3509 83.0472 113.066 53.5 113.066C23.9528 113.066 0 97.3509 0 77.9649C0 58.5789 23.9528 42.8635 53.5 42.8635C83.0472 42.8635 107 58.5789 107 77.9649ZM107 74.0514C107 95.5912 83.0472 113.053 53.5 113.053C23.9528 113.053 0 95.5912 0 74.0514C0 52.5115 23.9528 35.05 53.5 35.05C83.0472 35.05 107 52.5115 107 74.0514ZM107 69.703C107 93.6368 83.0472 113.039 53.5 113.039C23.9528 113.039 0 93.6368 0 69.703C0 45.7692 23.9528 26.367 53.5 26.367C83.0472 26.367 107 45.7692 107 69.703ZM107 64.8695C107 91.462 83.0472 113.019 53.5 113.019C23.9528 113.019 0 91.462 0 64.8695C0 38.277 23.9528 16.7195 53.5 16.7195C83.0472 16.7195 107 38.277 107 64.8695ZM107 59.5C107 89.0472 83.0472 113 53.5 113C23.9528 113 0 89.0472 0 59.5C0 29.9528 23.9528 6 53.5 6C83.0472 6 107 29.9528 107 59.5Z" stroke="url(#paint0_linear_2096_15725)" stroke-width="1.5" stroke-miterlimit="10"/>
</g>
<path d="M53.4896 50.1375C53.4285 49.725 53.291 49.3507 53.0771 49.0146C52.8632 48.6632 52.5958 48.3576 52.275 48.0979C51.9542 47.8382 51.5875 47.6396 51.175 47.5021C50.7778 47.3493 50.3576 47.2729 49.9146 47.2729C49.1049 47.2729 48.4174 47.4333 47.8521 47.7542C47.2868 48.0597 46.8285 48.4799 46.4771 49.0146C46.1257 49.534 45.866 50.1299 45.6979 50.8021C45.5451 51.4743 45.4687 52.1694 45.4687 52.8875C45.4687 53.575 45.5451 54.2472 45.6979 54.9042C45.866 55.5458 46.1257 56.1264 46.4771 56.6458C46.8285 57.1653 47.2868 57.5854 47.8521 57.9063C48.4174 58.2118 49.1049 58.3646 49.9146 58.3646C51.0146 58.3646 51.8701 58.0285 52.4812 57.3563C53.1076 56.684 53.4896 55.7979 53.6271 54.6979H57.1104C57.0187 55.7215 56.7819 56.6458 56.4 57.4708C56.0181 58.2958 55.5139 58.9986 54.8875 59.5792C54.2611 60.1597 53.5278 60.6028 52.6875 60.9083C51.8472 61.2139 50.9229 61.3667 49.9146 61.3667C48.6618 61.3667 47.5312 61.1528 46.5229 60.725C45.5299 60.2819 44.6896 59.6785 44.0021 58.9146C43.3146 58.1507 42.7875 57.2569 42.4208 56.2333C42.0542 55.1944 41.8708 54.0792 41.8708 52.8875C41.8708 51.6653 42.0542 50.5347 42.4208 49.4958C42.7875 48.4417 43.3146 47.525 44.0021 46.7458C44.6896 45.9667 45.5299 45.3556 46.5229 44.9125C47.5312 44.4694 48.6618 44.2479 49.9146 44.2479C50.816 44.2479 51.6639 44.3778 52.4583 44.6375C53.2681 44.8972 53.9861 45.2792 54.6125 45.7833C55.2542 46.2722 55.7812 46.8833 56.1937 47.6167C56.6062 48.35 56.866 49.1903 56.9729 50.1375H53.4896ZM62.1111 55.0875C62.1111 55.5611 62.1569 56.0271 62.2486 56.4854C62.3402 56.9285 62.493 57.3333 62.7069 57.7C62.9361 58.0514 63.234 58.334 63.6007 58.5479C63.9673 58.7618 64.4257 58.8688 64.9757 58.8688C65.5257 58.8688 65.984 58.7618 66.3507 58.5479C66.7326 58.334 67.0305 58.0514 67.2444 57.7C67.4736 57.3333 67.634 56.9285 67.7257 56.4854C67.8173 56.0271 67.8632 55.5611 67.8632 55.0875C67.8632 54.6139 67.8173 54.1479 67.7257 53.6896C67.634 53.2313 67.4736 52.8264 67.2444 52.475C67.0305 52.1236 66.7326 51.841 66.3507 51.6271C65.984 51.3979 65.5257 51.2833 64.9757 51.2833C64.4257 51.2833 63.9673 51.3979 63.6007 51.6271C63.234 51.841 62.9361 52.1236 62.7069 52.475C62.493 52.8264 62.3402 53.2313 62.2486 53.6896C62.1569 54.1479 62.1111 54.6139 62.1111 55.0875ZM58.8569 55.0875C58.8569 54.1403 59.0021 53.2847 59.2923 52.5208C59.5826 51.7417 59.9951 51.0847 60.5298 50.55C61.0646 50 61.7062 49.5799 62.4548 49.2896C63.2034 48.984 64.0437 48.8313 64.9757 48.8313C65.9076 48.8313 66.7479 48.984 67.4965 49.2896C68.2604 49.5799 68.9097 50 69.4444 50.55C69.9791 51.0847 70.3916 51.7417 70.6819 52.5208C70.9722 53.2847 71.1173 54.1403 71.1173 55.0875C71.1173 56.0347 70.9722 56.8903 70.6819 57.6542C70.3916 58.4181 69.9791 59.075 69.4444 59.625C68.9097 60.1597 68.2604 60.5722 67.4965 60.8625C66.7479 61.1528 65.9076 61.2979 64.9757 61.2979C64.0437 61.2979 63.2034 61.1528 62.4548 60.8625C61.7062 60.5722 61.0646 60.1597 60.5298 59.625C59.9951 59.075 59.5826 58.4181 59.2923 57.6542C59.0021 56.8903 58.8569 56.0347 58.8569 55.0875ZM76.579 47.3188H73.3248V44.6375H76.579V47.3188ZM73.3248 49.1521H76.579V61H73.3248V49.1521ZM79.1414 49.1521H82.2351V50.8021H82.3039C82.7164 50.1146 83.2511 49.6181 83.908 49.3125C84.565 48.9917 85.2372 48.8313 85.9247 48.8313C86.7955 48.8313 87.506 48.9535 88.056 49.1979C88.6212 49.4271 89.0643 49.7556 89.3851 50.1833C89.706 50.5958 89.9275 51.1076 90.0497 51.7188C90.1872 52.3146 90.256 52.9792 90.256 53.7125V61H87.0018V54.3083C87.0018 53.3306 86.849 52.6049 86.5435 52.1313C86.2379 51.6424 85.6955 51.3979 84.9164 51.3979C84.0303 51.3979 83.3886 51.6653 82.9914 52.2C82.5942 52.7194 82.3955 53.5826 82.3955 54.7896V61H79.1414V49.1521ZM95.2466 57.15C95.2466 57.5014 95.3154 57.8069 95.4529 58.0667C95.6056 58.3111 95.7966 58.5174 96.0258 58.6854C96.2549 58.8382 96.5147 58.9528 96.8049 59.0292C97.1105 59.1056 97.4237 59.1438 97.7445 59.1438C97.9737 59.1438 98.2105 59.1208 98.4549 59.075C98.7147 59.0139 98.9438 58.9299 99.1424 58.8229C99.3563 58.7007 99.532 58.5479 99.6695 58.3646C99.807 58.166 99.8758 57.9215 99.8758 57.6313C99.8758 57.1424 99.5473 56.7757 98.8904 56.5313C98.2487 56.2868 97.3473 56.0424 96.1862 55.7979C95.7126 55.691 95.2466 55.5688 94.7883 55.4313C94.3452 55.2785 93.948 55.0875 93.5966 54.8583C93.2452 54.6139 92.9626 54.316 92.7487 53.9646C92.5348 53.5979 92.4279 53.1549 92.4279 52.6354C92.4279 51.8715 92.573 51.2451 92.8633 50.7563C93.1688 50.2674 93.566 49.8854 94.0549 49.6104C94.5438 49.3201 95.0938 49.1215 95.7049 49.0146C96.316 48.8924 96.9424 48.8313 97.5841 48.8313C98.2258 48.8313 98.8445 48.8924 99.4404 49.0146C100.051 49.1368 100.594 49.3431 101.067 49.6333C101.541 49.9236 101.931 50.3132 102.236 50.8021C102.557 51.2757 102.748 51.8792 102.809 52.6125H99.7154C99.6695 51.9861 99.4327 51.566 99.0049 51.3521C98.5772 51.1229 98.073 51.0083 97.4924 51.0083C97.3091 51.0083 97.1105 51.0236 96.8966 51.0542C96.6827 51.0694 96.4841 51.1153 96.3008 51.1917C96.1327 51.2681 95.9876 51.3826 95.8654 51.5354C95.7431 51.6729 95.682 51.8639 95.682 52.1083C95.682 52.3986 95.789 52.6354 96.0029 52.8188C96.2167 53.0021 96.4917 53.1549 96.8279 53.2771C97.1792 53.384 97.5765 53.4833 98.0195 53.575C98.4626 53.6667 98.9133 53.766 99.3716 53.8729C99.8452 53.9799 100.304 54.1097 100.747 54.2625C101.205 54.4153 101.61 54.6215 101.961 54.8813C102.313 55.1257 102.595 55.4389 102.809 55.8208C103.023 56.1875 103.13 56.6458 103.13 57.1958C103.13 57.975 102.97 58.6319 102.649 59.1667C102.343 59.6861 101.938 60.1063 101.434 60.4271C100.93 60.7479 100.349 60.9694 99.6924 61.0917C99.0508 61.2292 98.3938 61.2979 97.7216 61.2979C97.0341 61.2979 96.3619 61.2292 95.7049 61.0917C95.048 60.9542 94.4598 60.725 93.9404 60.4042C93.4362 60.0833 93.016 59.6632 92.6799 59.1438C92.3591 58.609 92.1834 57.9444 92.1529 57.15H95.2466Z" fill="white"/>
<defs>
<linearGradient id="paint0_linear_2096_15725" x1="53.5" y1="6" x2="53.5" y2="113.195" gradientUnits="userSpaceOnUse">
<stop stop-color="#0F31E4"/>
<stop offset="0.511929" stop-color="#452BE9" stop-opacity="0.98"/>
<stop offset="1" stop-color="#00FF75"/>
</linearGradient>
<clipPath id="clip0_2096_15725">
<rect width="107.023" height="107" rx="3.03611" fill="white"/>
</clipPath>
</defs>
</svg>
