<svg width="81" height="82" viewBox="0 0 81 82" fill="none" xmlns="http://www.w3.org/2000/svg">
<g filter="url(#filter0_d_2634_21)">
<path d="M77 40.8164C77 60.9748 60.6584 77.3164 40.5 77.3164C20.3416 77.3164 4 60.9748 4 40.8164C4 20.658 20.3416 4.31641 40.5 4.31641C60.6584 4.31641 77 20.658 77 40.8164Z" fill="#2964FD"/>
</g>
<path d="M20.6525 20.6533L20 21.3058V36.8758C20 47.1133 20.09 52.5808 20.225 52.8733C20.7875 53.9083 21.35 53.9758 28.775 53.9758C33.5675 53.9758 35.75 54.0433 35.75 54.2233C35.75 54.4258 35.03 57.3733 34.3775 59.8708L34.1525 60.7258H32.375H30.575V61.5133V62.3008H41.15H51.725V61.5133V60.7258H49.925H48.1475L47.9225 59.8708C47.27 57.3733 46.55 54.4258 46.55 54.2233C46.55 54.0433 48.7325 53.9758 53.525 53.9758C60.95 53.9758 61.5125 53.9083 62.075 52.8733C62.21 52.5808 62.3 47.1133 62.3 36.8758V21.3058L61.6475 20.6533L60.995 20.0008H41.15H21.305L20.6525 20.6533ZM60.68 22.1833L60.7475 22.7008H41.1725C22.3175 22.7008 21.575 22.6783 21.575 22.2958C21.575 22.0708 21.6425 21.8008 21.7325 21.7333C21.8 21.6433 30.5975 21.5983 41.24 21.6208L60.6125 21.6883L60.68 22.1833ZM26.3 30.5758V36.8758H23.9375H21.575V30.5758V24.2758H23.9375H26.3V30.5758ZM54.425 35.5258V46.7758H41.15H27.875V35.5258V24.2758H41.15H54.425V35.5258ZM60.725 27.7633V31.2508H58.3625H56V27.7633V24.2758H58.3625H60.725V27.7633ZM60.725 36.2008V39.5758H58.3625H56V36.2008V32.8258H58.3625H60.725V36.2008ZM26.3 42.6133V46.7758H23.9375H21.575V42.6133V38.4508H23.9375H26.3V42.6133ZM60.725 43.9633V46.7758H58.3625H56V43.9633V41.1508H58.3625H60.725V43.9633ZM60.725 50.1508C60.725 51.6808 60.6575 51.9733 60.2975 52.1758C59.69 52.4908 22.61 52.4908 22.0025 52.1758C21.6425 51.9733 21.575 51.6808 21.575 50.1508V48.3508H41.15H60.725V50.1508ZM44.9525 54.8083C45.605 57.3283 46.325 60.2758 46.325 60.4783C46.325 60.6583 44.6825 60.7258 41.15 60.7258C37.6175 60.7258 35.975 60.6583 35.975 60.4783C35.975 60.2758 36.695 57.3283 37.3475 54.8083L37.5725 53.9758H41.15H44.7275L44.9525 54.8083Z" fill="white"/>
<path d="M22.7012 27.0875V27.875H23.9387H25.1762V27.0875V26.3H23.9387H22.7012V27.0875Z" fill="white"/>
<path d="M22.7012 30.6891V31.4766H23.9387H25.1762V30.6891V29.9016H23.9387H22.7012V30.6891Z" fill="white"/>
<path d="M22.7012 34.0641V34.8516H23.9387H25.1762V34.0641V33.2766H23.9387H22.7012V34.0641Z" fill="white"/>
<path d="M29 26.4133C29 27.0433 29.09 27.2008 29.45 27.2008C29.9 27.2008 29.9 27.3583 29.9 35.5258C29.9 43.6933 29.9 43.8508 29.45 43.8508C29.09 43.8508 29 44.0083 29 44.6383V45.4258H30.575H32.15V44.6383C32.15 44.0983 32.0375 43.8508 31.8125 43.8508C31.52 43.8508 31.475 42.7708 31.475 35.5258C31.475 28.2808 31.52 27.2008 31.8125 27.2008C32.0375 27.2008 32.15 26.9533 32.15 26.4133V25.6258H30.575H29V26.4133Z" fill="white"/>
<path d="M48.7988 26.4117C48.7988 27.1542 48.8438 27.1992 49.5863 27.1992C50.3288 27.1992 50.3738 27.1542 50.3738 26.4117C50.3738 25.6692 50.3288 25.6242 49.5863 25.6242C48.8438 25.6242 48.7988 25.6692 48.7988 26.4117Z" fill="white"/>
<path d="M51.5 26.4117C51.5 27.1767 51.5225 27.1992 52.4 27.1992C53.2775 27.1992 53.3 27.1767 53.3 26.4117C53.3 25.6467 53.2775 25.6242 52.4 25.6242C51.5225 25.6242 51.5 25.6467 51.5 26.4117Z" fill="white"/>
<path d="M36.8746 27.7392C34.9621 28.7967 33.2071 29.8542 33.0046 30.1242C32.6446 30.5742 32.5996 31.1817 32.5996 35.5017C32.5996 39.4842 32.6671 40.4517 32.9371 40.8567C33.4771 41.6442 40.2496 45.1992 41.1721 45.1992C42.2296 45.1992 49.0021 41.4867 49.4071 40.6992C49.8571 39.8217 49.8121 30.8442 49.3621 30.1917C48.8221 29.4042 42.0496 25.8492 41.1271 25.8492C40.5871 25.8492 39.3046 26.4342 36.8746 27.7392ZM44.0296 28.9092C45.5371 29.7192 46.8196 30.4617 46.8646 30.5517C46.9771 30.7092 41.5771 33.7242 41.1496 33.7242C40.6096 33.7242 35.3221 30.6867 35.5246 30.4842C35.7946 30.2142 40.7671 27.4692 41.0371 27.4467C41.1721 27.4242 42.5221 28.0992 44.0296 28.9092ZM48.1246 35.8617V39.7992L47.2921 40.3167C46.8196 40.6092 45.4471 41.3742 44.2321 42.0267L42.0496 43.2192L42.0946 39.2142L42.1621 35.2317L45.0871 33.5892C46.7071 32.7117 48.0346 31.9692 48.0796 31.9467C48.1021 31.9242 48.1246 33.7017 48.1246 35.8617ZM37.3246 33.7017L40.1371 35.2542L40.2046 39.2367L40.2496 43.2192L38.0671 42.0267C36.8521 41.3742 35.4796 40.6092 35.0296 40.3167L34.1746 39.7992V35.9742C34.1746 33.8592 34.2421 32.1492 34.3546 32.1492C34.4446 32.1492 35.7721 32.8467 37.3246 33.7017Z" fill="white"/>
<path d="M50.1488 41.8258C50.1488 42.4333 50.0813 42.5008 49.4738 42.5008C48.8438 42.5008 48.7988 42.5683 48.7988 43.2883C48.7988 44.0083 48.8438 44.0758 49.4738 44.0758C50.0813 44.0758 50.1488 44.1433 50.1488 44.7508C50.1488 45.3808 50.2163 45.4258 50.9363 45.4258C51.6563 45.4258 51.7238 45.3808 51.7238 44.7508C51.7238 44.1208 51.7913 44.0758 52.5113 44.0758C53.2538 44.0758 53.2988 44.0308 53.2988 43.2883C53.2988 42.5458 53.2538 42.5008 52.5113 42.5008C51.7913 42.5008 51.7238 42.4558 51.7238 41.8258C51.7238 41.1958 51.6563 41.1508 50.9363 41.1508C50.2163 41.1508 50.1488 41.1958 50.1488 41.8258Z" fill="white"/>
<path d="M57.125 26.4117V27.1992H58.3625H59.6V26.4117V25.6242H58.3625H57.125V26.4117Z" fill="white"/>
<path d="M57.125 29.1148V29.9023H58.3625H59.6V29.1148V28.3273H58.3625H57.125V29.1148Z" fill="white"/>
<path d="M57.125 34.7398V35.5273H58.3625H59.6V34.7398V33.9523H58.3625H57.125V34.7398Z" fill="white"/>
<path d="M57.125 37.6617V38.4492H58.3625H59.6V37.6617V36.8742H58.3625H57.125V37.6617Z" fill="white"/>
<path d="M22.7012 41.1508V42.0508H23.9387H25.1762V41.1508V40.2508H23.9387H22.7012V41.1508Z" fill="white"/>
<path d="M22.7012 43.9625V44.75H23.9387H25.1762V43.9625V43.175H23.9387H22.7012V43.9625Z" fill="white"/>
<path d="M57.125 43.9625V44.75H58.3625H59.6V43.9625V43.175H58.3625H57.125V43.9625Z" fill="white"/>
<defs>
<filter id="filter0_d_2634_21" x="0" y="0.316406" width="81" height="81" filterUnits="userSpaceOnUse" color-interpolation-filters="sRGB">
<feFlood flood-opacity="0" result="BackgroundImageFix"/>
<feColorMatrix in="SourceAlpha" type="matrix" values="0 0 0 0 0 0 0 0 0 0 0 0 0 0 0 0 0 0 127 0" result="hardAlpha"/>
<feOffset/>
<feGaussianBlur stdDeviation="2"/>
<feComposite in2="hardAlpha" operator="out"/>
<feColorMatrix type="matrix" values="0 0 0 0 0 0 0 0 0 0 0 0 0 0 0 0 0 0 0.25 0"/>
<feBlend mode="normal" in2="BackgroundImageFix" result="effect1_dropShadow_2634_21"/>
<feBlend mode="normal" in="SourceGraphic" in2="effect1_dropShadow_2634_21" result="shape"/>
</filter>
</defs>
</svg>
