<svg width="81" height="82" viewBox="0 0 81 82" fill="none" xmlns="http://www.w3.org/2000/svg">
<g filter="url(#filter0_d_2298_15883)">
<circle cx="40.5" cy="40.8164" r="36.5" fill="white"/>
</g>
<path d="M37.9471 25.635C33.957 28.0879 35.2979 34.1712 39.9748 34.6945C42.8529 35.0215 45.1096 33.0919 45.3059 30.083C45.5348 27.1721 43.4416 24.9809 40.4981 24.9809C39.6151 24.9809 38.6012 25.2425 37.9471 25.635ZM42.6567 26.8778C44.3901 28.2514 44.5863 30.6062 43.1473 32.2415C42.2969 33.19 42.0026 33.3208 40.4981 33.3208C38.9937 33.3208 38.6993 33.19 37.849 32.2415C35.6904 29.8213 37.2603 26.2891 40.4981 26.2891C41.4139 26.2891 42.2315 26.518 42.6567 26.8778Z" fill="black"/>
<path d="M24.1454 26.3555C19.3704 28.7758 20.8422 35.7421 26.2059 36.3308C29.2475 36.6578 32.2237 33.6816 31.8967 30.64C31.7004 28.7103 30.523 26.9769 28.9205 26.2574C27.1544 25.4398 25.9115 25.4725 24.1454 26.3555ZM28.6588 27.5984C30.8501 28.9393 31.2099 32.0136 29.411 33.8451C26.2059 37.0176 20.9403 33.191 23.0007 29.2009C23.6548 27.9908 25.2901 26.9442 26.5984 26.9442C27.1544 26.9442 28.0701 27.2386 28.6588 27.5984Z" fill="black"/>
<path d="M27.2523 30.2162L25.9768 31.5244L25.29 30.8703C24.8975 30.5105 24.4069 30.2162 24.2107 30.2162C23.4912 30.2162 23.8182 31.3936 24.7667 32.3093L25.7479 33.2578L26.9907 32.2439C28.8222 30.8049 29.4763 29.9872 29.2801 29.3985C28.9857 28.6463 28.6587 28.7771 27.2523 30.2162Z" fill="black"/>
<path d="M52.0763 26.2582C50.4737 26.9777 49.2963 28.7111 49.1001 30.6408C48.8057 33.4535 51.5203 36.4297 54.3984 36.4297C56.0991 36.4297 58.1922 35.1215 59.0426 33.4862C59.9911 31.7201 59.9911 30.4118 59.0753 28.5803C57.7344 25.9312 54.8563 24.9827 52.0763 26.2582ZM56.2299 27.4356C56.7532 27.73 57.5054 28.4168 57.8325 29.0055C60.2527 32.9629 54.8563 37.1165 51.5857 33.8459C48.3805 30.6408 52.2071 25.3752 56.2299 27.4356Z" fill="black"/>
<path d="M52.5027 29.3659C52.4045 29.6275 52.6008 30.0854 52.9605 30.4124C53.5819 30.9684 53.5819 31.0011 52.9278 31.688C52.3718 32.3094 52.3391 32.4729 52.6989 32.7999C53.0586 33.0943 53.2549 33.0616 53.5819 32.6691C54.1052 32.0477 54.5304 32.0477 55.2826 32.7345C56.2311 33.5849 56.7871 32.7999 56.0676 31.688C55.5116 30.8703 55.5116 30.7722 56.0676 30.1835C56.4927 29.6929 56.5582 29.464 56.2638 29.1696C55.9695 28.8753 55.7405 28.9407 55.2499 29.3659C54.6612 29.9218 54.5304 29.9218 53.8436 29.4313C52.9278 28.7772 52.7316 28.7772 52.5027 29.3659Z" fill="black"/>
<path d="M33.9238 34.8917C31.9615 36.1999 31.6344 37.2792 31.7326 42.3159L31.8307 46.7312L35.8535 46.8293L39.8436 46.9274V51.4735C39.8436 53.9591 39.7127 56.3793 39.5165 56.8372C39.0259 58.1454 37.3579 58.9958 35.2975 58.9958C33.5968 58.9958 33.5641 58.9631 34.0547 58.4071C34.7415 57.6549 34.7742 56.7064 34.1528 56.7064C33.7276 56.7064 31.3401 59.0939 31.3401 59.5191C31.3401 59.977 33.7603 62.5934 34.1528 62.5934C34.7742 62.5934 34.7415 61.6449 34.0547 60.8927C33.5641 60.3367 33.5968 60.304 35.2975 60.304C36.3441 60.304 37.6523 60.0424 38.4699 59.6499L39.8436 59.0285V60.7946C39.8436 62.7242 39.7127 62.8878 38.797 62.0374C38.3391 61.6122 38.1102 61.5795 37.8158 61.8739C37.5215 62.1682 37.7177 62.5607 38.6989 63.5746C39.3857 64.2941 40.2033 64.8828 40.4977 64.8828C40.792 64.8828 41.6097 64.2941 42.2965 63.5746C43.2777 62.5607 43.4739 62.1682 43.1795 61.8739C42.8852 61.5795 42.6563 61.6122 42.1984 62.0374C41.8713 62.3318 41.4789 62.5934 41.3807 62.5934C41.2499 62.5934 41.1518 60.533 41.1518 58.0146V53.4031L42.133 54.1553C42.8525 54.6786 43.7355 54.9076 45.2727 55.0057C47.3005 55.1365 47.3659 55.1692 46.8426 55.7579C46.5482 56.1177 46.3847 56.5756 46.5155 56.9026C46.7118 57.3932 46.9734 57.2297 48.1835 56.0523C49.0012 55.2673 49.6553 54.4497 49.6553 54.2535C49.6553 53.7629 47.2678 51.4735 46.7772 51.4735C46.2212 51.4735 46.2866 52.1603 46.908 53.0434C47.3986 53.7629 47.3986 53.7629 45.7306 53.7629C42.5254 53.7629 41.1518 52.3238 41.1518 48.8897V46.9274L45.1746 46.8293L49.1647 46.7312L49.2628 42.6429C49.3282 40.3862 49.1974 38.0314 49.0339 37.41C48.576 35.8729 47.1042 34.4992 45.6325 34.2376C44.6513 34.1068 44.2588 34.2049 43.4412 34.9244C42.8525 35.3823 42.0348 35.8729 41.6097 35.971C40.3014 36.298 38.5026 35.8729 37.5542 34.9571C36.5076 33.9432 35.3629 33.9105 33.9238 34.8917ZM36.4095 35.7747C36.8346 36.4616 39.2222 37.41 40.4977 37.41C41.8386 37.41 43.4412 36.7886 44.4878 35.8729C45.3054 35.1533 46.6136 35.6112 47.3659 36.854C47.9219 37.7371 48.02 38.4893 48.02 41.7272V45.5865H40.4977H32.9754V41.8253C32.9754 37.8679 33.3351 36.4943 34.5125 35.8075C35.2648 35.3823 36.1478 35.3496 36.4095 35.7747Z" fill="black"/>
<defs>
<filter id="filter0_d_2298_15883" x="0" y="0.316406" width="81" height="81" filterUnits="userSpaceOnUse" color-interpolation-filters="sRGB">
<feFlood flood-opacity="0" result="BackgroundImageFix"/>
<feColorMatrix in="SourceAlpha" type="matrix" values="0 0 0 0 0 0 0 0 0 0 0 0 0 0 0 0 0 0 127 0" result="hardAlpha"/>
<feOffset/>
<feGaussianBlur stdDeviation="2"/>
<feComposite in2="hardAlpha" operator="out"/>
<feColorMatrix type="matrix" values="0 0 0 0 0 0 0 0 0 0 0 0 0 0 0 0 0 0 0.25 0"/>
<feBlend mode="normal" in2="BackgroundImageFix" result="effect1_dropShadow_2298_15883"/>
<feBlend mode="normal" in="SourceGraphic" in2="effect1_dropShadow_2298_15883" result="shape"/>
</filter>
</defs>
</svg>
