<svg width="81" height="82" viewBox="0 0 81 82" fill="none" xmlns="http://www.w3.org/2000/svg">
<g filter="url(#filter0_d_2635_22)">
<circle cx="40.5" cy="40.8164" r="36.5" fill="white"/>
</g>
<path d="M44.922 18.3898C52.5212 19.3282 57.9124 24.2042 59.3844 31.4538C59.826 33.6802 59.6604 37.5258 58.998 39.8994C58.2252 42.733 56.7164 45.6954 54.2876 49.1178L53.0364 50.9026L53.2204 52.0618C53.4964 53.9202 54.2508 56.073 55.5204 58.6858C56.1644 60.0106 56.698 61.3354 56.698 61.6298C56.698 61.961 56.4956 62.3842 56.1644 62.7522L55.6308 63.3594H46.4308H37.2308L36.7708 62.9362C36.458 62.6418 36.09 61.777 35.6116 60.2866L34.9124 58.0786L32.226 58.2074C28.8772 58.373 28.2148 58.2258 27.074 57.0298C26.1356 56.073 25.786 55.153 25.786 53.6258C25.786 52.8162 25.6756 52.4298 25.3076 51.8594C24.9948 51.3994 24.8108 50.8474 24.774 50.2586C24.7556 49.7802 24.6268 49.1362 24.5164 48.8418C24.3876 48.5474 24.3508 48.069 24.406 47.793C24.498 47.3514 24.4612 47.2778 23.9644 47.1674C23.1548 47.0018 22.0324 46.1002 21.6828 45.3642C21.5172 45.0146 21.37 44.297 21.37 43.7634C21.37 42.4754 22.014 41.2058 23.6884 39.2922L25.0316 37.7282L24.6452 36.5506C23.7804 33.8458 24.0564 30.957 25.4364 28.105C27.8284 23.1738 32.134 19.8618 37.654 18.721C39.6596 18.2978 43.0452 18.1506 44.922 18.3898ZM39.218 20.4874C35.6116 21.0394 32.962 22.2906 30.4964 24.609C28.4724 26.541 27.0004 29.025 26.4116 31.5826C26.0436 33.1098 26.154 34.4346 26.798 36.3482C27.0924 37.213 27.2396 37.949 27.166 38.225C27.1108 38.4642 26.4852 39.2922 25.8044 40.065C22.7316 43.469 22.658 44.6282 25.4548 45.5114L26.614 45.8794L26.5404 47.1306C26.5036 48.1242 26.5404 48.4554 26.798 48.7314C27.0372 49.0074 27.0924 49.265 27.0004 49.817C26.89 50.4794 26.9452 50.5898 27.4236 50.9578C27.9572 51.3442 27.9572 51.381 27.8652 52.6874C27.7364 54.3066 27.994 55.1714 28.7852 55.8338L29.374 56.3306L32.502 56.2018C34.8572 56.1098 35.7404 56.1466 36.09 56.3122C36.458 56.5146 36.6972 57.0114 37.3596 58.9986L38.1876 61.4274H46.3204H54.4716L53.478 59.3482C52.006 56.2386 50.994 52.7794 50.994 50.8106C50.994 50.3874 51.3252 49.7434 52.19 48.5106C56.3484 42.5122 57.802 38.6114 57.5628 34.0298C57.3604 29.945 55.4652 26.0442 52.4844 23.5786C49.154 20.837 44.3148 19.6962 39.218 20.4874Z" fill="#010806"/>
<path d="M52.5737 37.5913C52.5684 37.7686 52.5474 37.945 52.5109 38.1186L53.5844 38.5906L53.0762 39.7421L52.0046 39.27C51.7755 39.5884 51.4873 39.8598 51.1558 40.0694L51.5612 41.1676L50.3811 41.6035L49.9758 40.5053C49.7999 40.5301 49.6222 40.5397 49.4447 40.5338C49.2669 40.5285 49.0898 40.5075 48.9156 40.471L48.4436 41.5445L47.3017 41.0363L47.7718 39.9647C47.4819 39.7567 47.2313 39.4989 47.0314 39.2034L45.9484 39.6469L45.4707 38.484L46.5556 38.0405C46.5167 37.8303 46.5007 37.6166 46.508 37.4029C46.5133 37.2251 46.5343 37.048 46.5708 36.8738L45.4993 36.4018L46.0055 35.2598L47.0771 35.7319C47.3057 35.413 47.594 35.1415 47.9259 34.9325L47.5205 33.8324L48.7006 33.3984L49.106 34.4966C49.2779 34.4711 49.4518 34.4603 49.6256 34.4643C49.8034 34.4695 49.9805 34.4905 50.1547 34.5271L50.6267 33.4555L51.7782 33.9618L51.3099 35.0353C51.5997 35.2434 51.8503 35.5011 52.0503 35.7966L53.1352 35.3531L53.611 36.516L52.5261 36.9595C52.5647 37.1678 52.5807 37.3796 52.5737 37.5913ZM51.6221 37.5609C51.6343 37.1472 51.5236 36.7391 51.304 36.3883C51.0844 36.0374 50.7657 35.7595 50.3882 35.5898C50.0107 35.42 49.5914 35.3659 49.1831 35.4344C48.7749 35.5028 48.3962 35.6907 48.0947 35.9744C47.7933 36.258 47.5827 36.6246 47.4895 37.0279C47.3964 37.4312 47.4248 37.8531 47.5713 38.2402C47.7179 38.6273 47.9758 38.9623 48.3126 39.2029C48.6495 39.4434 49.0501 39.5787 49.4638 39.5917C49.7397 39.6016 50.0148 39.5568 50.2734 39.46C50.5319 39.3631 50.7687 39.2161 50.9702 39.0273C51.1717 38.8386 51.3339 38.6119 51.4474 38.3602C51.5609 38.1085 51.6235 37.8369 51.6316 37.5609H51.6221Z" fill="#010806"/>
<path d="M45.9891 31.175C45.9892 32.3338 45.653 33.4677 45.0214 34.4392C44.3898 35.4108 43.4898 36.1781 42.4307 36.6483C41.3715 37.1184 40.1987 37.2711 39.0545 37.0879C37.9103 36.9046 36.8438 36.3933 35.9845 35.6159C35.1251 34.8385 34.5098 33.8285 34.2132 32.7083C33.9165 31.5881 33.9513 30.4059 34.3133 29.3051C34.6753 28.2043 35.3489 27.2322 36.2525 26.5067C37.1561 25.7811 38.2507 25.3334 39.4037 25.2177V24.5878H37.6071V22.793H42.3957V24.5878H40.599V25.2177C41.7695 25.3329 42.8796 25.7926 43.7889 26.5386L44.2209 26.1066L43.3759 25.2596L44.6454 23.9901L47.1843 26.531L45.9167 27.8043L45.0698 26.9573L44.6378 27.3894C45.5129 28.4567 45.9905 29.7947 45.9891 31.175ZM35.5439 30.5755H37.0018V31.7726H35.5439C35.6752 32.7481 36.1233 33.6534 36.8193 34.3494C37.5153 35.0454 38.4207 35.4935 39.3961 35.6248V34.1688H40.5933V35.6248C41.5688 35.4935 42.4741 35.0454 43.1701 34.3494C43.8661 33.6534 44.3142 32.7481 44.4455 31.7726H42.9876V30.5755H44.4455C44.3139 29.6001 43.8657 28.6949 43.1697 27.999C42.4738 27.3031 41.5686 26.8549 40.5933 26.7232V28.1849H39.3961V26.727C38.4213 26.8585 37.5166 27.3061 36.8207 28.0013C36.1249 28.6965 35.6763 29.6008 35.5439 30.5755ZM39.9957 29.9778C40.1529 29.9778 40.3085 30.0088 40.4538 30.069C40.599 30.1291 40.731 30.2173 40.8422 30.3285C40.9533 30.4396 41.0415 30.5716 41.1017 30.7168C41.1619 30.8621 41.1928 31.0178 41.1928 31.175C41.1928 31.3322 41.1619 31.4879 41.1017 31.6331C41.0415 31.7784 40.9533 31.9103 40.8422 32.0215C40.731 32.1327 40.599 32.2209 40.4538 32.281C40.3085 32.3412 40.1529 32.3721 39.9957 32.3721L37.5994 34.1688L38.7966 31.175C38.7966 31.017 38.8279 30.8605 38.8886 30.7146C38.9494 30.5688 39.0384 30.4364 39.1506 30.3251C39.2628 30.2138 39.3959 30.1258 39.5422 30.0662C39.6886 30.0066 39.8453 29.9766 40.0033 29.9778H39.9957Z" fill="#010806"/>
<defs>
<filter id="filter0_d_2635_22" x="0" y="0.316406" width="81" height="81" filterUnits="userSpaceOnUse" color-interpolation-filters="sRGB">
<feFlood flood-opacity="0" result="BackgroundImageFix"/>
<feColorMatrix in="SourceAlpha" type="matrix" values="0 0 0 0 0 0 0 0 0 0 0 0 0 0 0 0 0 0 127 0" result="hardAlpha"/>
<feOffset/>
<feGaussianBlur stdDeviation="2"/>
<feComposite in2="hardAlpha" operator="out"/>
<feColorMatrix type="matrix" values="0 0 0 0 0 0 0 0 0 0 0 0 0 0 0 0 0 0 0.25 0"/>
<feBlend mode="normal" in2="BackgroundImageFix" result="effect1_dropShadow_2635_22"/>
<feBlend mode="normal" in="SourceGraphic" in2="effect1_dropShadow_2635_22" result="shape"/>
</filter>
</defs>
</svg>
