<svg width="81" height="82" viewBox="0 0 81 82" fill="none" xmlns="http://www.w3.org/2000/svg">
<g filter="url(#filter0_d_2298_15824)">
<circle cx="40.5" cy="40.8164" r="36.5" fill="#2964FD"/>
</g>
<g clip-path="url(#clip0_2298_15824)">
<path d="M35.3561 22.444C34.9665 22.5998 34.4795 22.8336 34.3042 22.9699C33.7198 23.4764 33.2718 24.7426 33.2718 26.0087V27.2359H30.5252C26.7461 27.2359 26.8241 27.1775 24.2333 31.3071C21.5646 35.5732 21.7204 35.2225 21.8178 36.9562C21.9347 38.8652 22.4606 39.9366 23.6294 40.6378L24.4865 41.1638L24.506 48.3712C24.506 54.9163 24.5449 55.6565 24.8761 56.3578C25.2852 57.2538 26.415 58.3252 27.1942 58.5395C27.4864 58.6369 33.564 58.6953 40.6934 58.6953H53.6668L54.6018 58.1109C55.2252 57.7213 55.6927 57.2344 56.0043 56.6694C56.4524 55.8123 56.4524 55.7734 56.4524 48.4686V41.1053L57.0367 40.8716C57.8354 40.5404 58.7315 39.4885 58.9652 38.5925C59.0821 38.1834 59.1795 37.2484 59.1795 36.5277C59.1795 35.2225 59.1405 35.1251 57.3874 31.7747C54.9524 27.1775 55.1862 27.3528 50.9591 27.2749L47.6866 27.2165V26.0087C47.6671 24.4309 47.1801 23.3595 46.2061 22.7362C45.4659 22.2881 45.3296 22.2687 40.7714 22.2297C37.1871 22.1907 35.921 22.2297 35.3561 22.444ZM45.0179 24.1582C45.8555 24.5867 45.914 24.8789 45.9334 27.8593V30.7422H40.4792H35.0249V27.8593C35.0444 24.8984 35.1028 24.6257 35.9015 24.1582C36.4469 23.8465 44.4335 23.8465 45.0179 24.1582ZM33.2718 30.5085C33.2718 31.424 33.3692 32.1253 33.5055 32.2616C33.8367 32.5928 47.1217 32.5928 47.4528 32.2616C47.5892 32.1253 47.6866 31.424 47.6866 30.5085V28.9891H50.628C54.1148 28.9891 53.7447 28.7359 55.5758 32.2422L56.8225 34.6381H40.5571C27.5837 34.6381 24.3112 34.5797 24.4281 34.3849C25.6553 32.398 27.3695 29.7683 27.6811 29.4176C28.0513 29.0086 28.2266 28.9891 30.681 28.9891H33.2718V30.5085ZM27.8175 36.9757C27.8175 38.3392 26.8241 39.508 25.6748 39.508C24.5255 39.508 23.532 38.3782 23.532 37.0731V36.3913H25.6748H27.8175V36.9757ZM35.5703 37.7549C35.4535 39.8586 34.4211 40.969 32.59 40.969C30.7394 40.969 29.5707 39.6833 29.5707 37.638V36.3913H32.6095H35.6483L35.5703 37.7549ZM43.5959 37.3068C43.5959 38.7094 43.2647 39.6054 42.5245 40.2677C41.2389 41.378 39.6416 41.417 38.4533 40.3262C37.6936 39.6054 37.3625 38.7483 37.3625 37.4627V36.3913H40.4792H43.5959V37.3068ZM51.3877 37.7354C51.3877 38.7873 51.2903 39.1963 50.9397 39.7028C49.9852 41.1443 48.1151 41.5339 46.7321 40.6183C45.7581 39.9755 45.349 39.06 45.349 37.5795V36.3913H48.3684H51.3877V37.7354ZM57.4263 37.0731C57.4263 38.3782 56.4329 39.508 55.2836 39.508C54.1343 39.508 53.1408 38.3392 53.1408 36.9757V36.3913H55.2836H57.4263V37.0731ZM29.6096 41.904C30.5446 42.6247 31.2459 42.839 32.6095 42.839C33.973 42.839 35.4924 42.2157 36.1547 41.378L36.5248 40.8911L37.0897 41.4949C38.8039 43.3065 42.1544 43.3065 43.8686 41.4949L44.4335 40.8911L44.8036 41.378C45.0179 41.6313 45.6218 42.0793 46.1672 42.352C47.297 42.9169 49.167 43.0143 50.2579 42.5663C51.076 42.2157 52.3032 41.1833 52.4591 40.6768C52.5565 40.3456 52.6344 40.3651 53.6278 40.8521L54.6992 41.3586V48.4296V55.4812L54.0369 56.2214L53.3746 56.9422L49.167 57.0006L44.9595 57.059V53.2411C44.9595 49.0919 44.8426 48.4881 43.8296 47.4362C42.9141 46.4817 41.8817 46.0531 40.4792 46.0531C39.0767 46.0531 38.0442 46.4817 37.1287 47.4362C36.1158 48.4881 35.9989 49.0919 35.9989 53.2411V57.0396H32.0835C27.7591 57.0396 27.1942 56.9227 26.5903 55.8903C26.2981 55.3838 26.2591 54.5851 26.2591 48.3322V41.3586L27.2916 40.8716L28.3045 40.3651L28.6356 40.8911C28.811 41.1833 29.2395 41.6313 29.6096 41.904ZM41.6479 48.0595C42.0181 48.2543 42.5245 48.7023 42.7778 49.053C43.1868 49.6568 43.2063 49.8711 43.2063 53.3579V57.0396H40.4792H37.752V53.3579C37.752 49.8711 37.7715 49.6568 38.2001 49.0335C38.6871 48.2933 39.7195 47.6894 40.4792 47.6894C40.7519 47.6894 41.2778 47.8452 41.6479 48.0595Z" fill="white"/>
<path d="M37.674 26.5154C37.4403 26.6908 37.3429 26.9635 37.4013 27.3336L37.4598 27.918H40.4791H43.4984L43.5569 27.3336C43.6737 26.3986 43.2647 26.2622 40.4791 26.2622C38.7649 26.2622 37.9078 26.3401 37.674 26.5154Z" fill="white"/>
<path d="M29.7649 46.3651C28.4403 47.0469 28.0118 48.0404 28.0118 50.4363C28.0118 52.9881 27.9534 52.9492 31.1285 52.9492C34.3037 52.9492 34.2452 52.9881 34.2452 50.4363C34.2452 48.0404 33.8167 47.0469 32.4921 46.3651C32.0246 46.1314 31.4012 45.9366 31.1285 45.9366C30.8558 45.9366 30.2325 46.1314 29.7649 46.3651ZM32.0051 48.1767C32.4336 48.5858 32.4921 48.8195 32.4921 49.9299V51.196H31.1285H29.7649V49.9299C29.7649 48.8195 29.8234 48.5858 30.2519 48.1767C30.5052 47.904 30.9142 47.6897 31.1285 47.6897C31.3623 47.6897 31.7519 47.904 32.0051 48.1767Z" fill="white"/>
<path d="M48.3667 46.3065C47.0616 46.8909 46.8278 47.4363 46.7499 50.0466C46.6525 53.0269 46.5551 52.949 49.8277 52.949C53.0223 52.949 52.9444 53.0075 52.9444 50.3583C52.9249 47.8064 52.5743 46.8714 51.3471 46.326C50.2952 45.8585 49.3796 45.839 48.3667 46.3065ZM50.8016 48.0792C51.1133 48.3908 51.1912 48.722 51.1912 49.8323V51.1959H49.8277H48.4641V49.8323C48.4641 48.2545 48.8342 47.6896 49.8277 47.6896C50.1588 47.6896 50.5874 47.8649 50.8016 48.0792Z" fill="white"/>
</g>
<defs>
<filter id="filter0_d_2298_15824" x="0" y="0.316406" width="81" height="81" filterUnits="userSpaceOnUse" color-interpolation-filters="sRGB">
<feFlood flood-opacity="0" result="BackgroundImageFix"/>
<feColorMatrix in="SourceAlpha" type="matrix" values="0 0 0 0 0 0 0 0 0 0 0 0 0 0 0 0 0 0 127 0" result="hardAlpha"/>
<feOffset/>
<feGaussianBlur stdDeviation="2"/>
<feComposite in2="hardAlpha" operator="out"/>
<feColorMatrix type="matrix" values="0 0 0 0 0 0 0 0 0 0 0 0 0 0 0 0 0 0 0.25 0"/>
<feBlend mode="normal" in2="BackgroundImageFix" result="effect1_dropShadow_2298_15824"/>
<feBlend mode="normal" in="SourceGraphic" in2="effect1_dropShadow_2298_15824" result="shape"/>
</filter>
<clipPath id="clip0_2298_15824">
<rect width="38.959" height="38.959" fill="white" transform="translate(21 21)"/>
</clipPath>
</defs>
</svg>
