<svg width="81" height="82" viewBox="0 0 81 82" fill="none" xmlns="http://www.w3.org/2000/svg">
<g filter="url(#filter0_d_2483_48)">
<circle cx="40.5" cy="40.8164" r="36.5" fill="white"/>
</g>
<path d="M25.8125 38.565V55.5547H32.5498C36.2524 55.5547 39.2871 55.5313 39.2871 55.5078C39.2871 55.4727 39.0996 55.086 38.877 54.6408C38.6544 54.1955 38.42 53.6917 38.3497 53.5159L38.2326 53.2113H33.1942H28.1559L28.1793 38.6001L28.2145 23.9772H40.5174H52.8203L52.8554 29.5546L52.8789 35.1319L53.8514 35.3545C54.3787 35.4717 54.9059 35.5888 55.0231 35.6123C55.2106 35.6474 55.2223 35.249 55.2223 28.6172V21.5753H40.5174H25.8125V38.565Z" fill="black"/>
<path d="M22.0625 38.5646V53.3281H23.1756H24.2887L24.2653 38.5881L24.2302 23.8598L23.1522 23.8246L22.0625 23.7894V38.5646Z" fill="black"/>
<path d="M18.4294 38.5643V51.1016H19.484H20.5385V38.5643V26.0271H19.484H18.4294V38.5643Z" fill="black"/>
<path d="M29.9121 27.3751V28.3711H40.516H51.12V27.3751V26.3792H40.516H29.9121V27.3751Z" fill="black"/>
<path d="M29.9121 33.641V35.9844H32.1383H34.3646V34.7541V33.5121L34.0717 33.723C33.8256 33.9105 33.7905 34.0276 33.7787 34.6603V35.3868H32.1383L30.498 35.3985V33.6878V31.9889L32.2087 32.0123C33.685 32.024 33.9428 32.0006 34.142 31.8131C34.6692 31.3444 34.4935 31.2976 32.1383 31.2976H29.9121V33.641Z" fill="black"/>
<path d="M33.5315 32.7776L32.4418 33.8791L31.9614 33.4104L31.481 32.93L31.2584 33.176C31.0358 33.4221 31.0475 33.4221 31.7622 34.1485L32.4887 34.875L33.8244 33.5393C34.9961 32.3793 35.1485 32.1801 35.0313 31.9926C34.961 31.8754 34.8321 31.7465 34.7618 31.7231C34.6915 31.6997 34.1408 32.1684 33.5315 32.7776Z" fill="black"/>
<path d="M36.8496 32.2579L36.8848 32.8789H43.915H50.9452L50.9804 32.2579L51.0155 31.6486H43.915H36.8145L36.8496 32.2579Z" fill="black"/>
<path d="M36.8242 35.047V35.6328H41.6985C46.3385 35.6328 46.6314 35.6211 47.6742 35.375C48.7405 35.1173 48.7756 35.0938 48.7756 34.7892V34.4611H42.7999H36.8242V35.047Z" fill="black"/>
<path d="M49.6552 36.8178C47.1243 37.0756 44.6521 38.2004 42.7656 39.958C41.3596 41.2703 40.0355 43.4848 39.52 45.4181C39.1919 46.6133 39.0747 49.0856 39.2856 50.3627C40.0004 54.8386 43.3983 58.5764 47.8391 59.7949C48.7061 60.0293 49.0928 60.0644 50.8855 60.0527C53.2289 60.0527 54.0257 59.8887 55.7481 59.0802C61.384 56.4439 63.9969 50.0112 61.7824 44.2464C60.1889 40.122 56.416 37.2748 51.9283 36.8061C51.2722 36.7475 50.7098 36.7007 50.6629 36.7007C50.6277 36.7124 50.1708 36.7592 49.6552 36.8178ZM52.9126 39.2198C56.8378 40.0986 59.8373 43.4614 60.2474 47.4569C60.7278 52.0734 57.9978 56.1392 53.4633 57.5687C52.7017 57.8031 52.3502 57.8382 50.7683 57.8382C49.0342 57.8382 48.9053 57.8148 47.9328 57.475C46.4682 56.9477 45.2613 56.2212 44.2654 55.2487C42.2266 53.2686 41.301 50.9017 41.4299 47.9959C41.5119 45.8985 42.0509 44.4222 43.3397 42.6998C44.5232 41.1063 46.5268 39.794 48.5421 39.2667C49.6669 38.9855 51.7291 38.962 52.9126 39.2198Z" fill="black"/>
<path d="M47.7796 42.162C46.4205 42.6541 45.4245 43.5212 44.8621 44.7046C43.4561 47.6924 45.237 51.1021 48.5178 51.688C49.5489 51.8754 50.5449 51.7114 51.5643 51.2076L52.2907 50.8326L52.5836 51.1021C52.818 51.3247 52.8414 51.4068 52.7477 51.6059C52.6305 51.8051 52.7945 52.016 54.1186 53.3401L55.6301 54.8516L56.4737 54.0079L57.329 53.1526L55.9581 51.77C54.4466 50.2585 54.2123 50.071 54.0131 50.2702C53.9194 50.3639 53.7905 50.3171 53.5561 50.0827L53.2398 49.7781L53.4741 49.45C54.0131 48.6767 54.3178 47.2472 54.1537 46.1224C54.0248 45.1381 53.357 43.8493 52.6657 43.24C52.361 42.9705 51.7752 42.5838 51.3533 42.3846C50.6972 42.08 50.4394 42.0214 49.4786 41.998C48.635 41.9628 48.2249 42.0097 47.7796 42.162ZM50.8261 43.7907C52.0095 44.3414 52.6891 45.4545 52.6891 46.8254C52.6891 48.1728 52.0212 49.286 50.8378 49.907C50.334 50.1647 50.0879 50.2233 49.3029 50.2233C48.5178 50.2233 48.2718 50.1647 47.7679 49.907C46.2799 49.1219 45.5534 47.4933 46.0104 45.9232C46.6197 43.8141 48.8225 42.8416 50.8261 43.7907Z" fill="black"/>
<path d="M29.9121 40.848V43.1328H32.1383H34.3646V41.8791V40.6371L34.0717 40.9066C33.8256 41.1409 33.7787 41.2932 33.7787 41.8674V42.547H32.1383H30.498V40.848V39.1373L32.2087 39.1607C33.685 39.1725 33.9428 39.149 34.142 38.9615C34.2591 38.8561 34.3646 38.7155 34.3646 38.6569C34.3646 38.61 33.3686 38.5632 32.1383 38.5632H29.9121V40.848Z" fill="black"/>
<path d="M38.9684 38.8908L36.8242 38.9142V39.5001V40.0859H38.5583H40.2807L40.7846 39.5118C41.0541 39.1837 41.2415 38.9142 41.1947 38.8908C41.1361 38.8674 40.1401 38.8674 38.9684 38.8908Z" fill="black"/>
<path d="M33.5789 39.9925L32.5009 41.0705L32.0322 40.6369C31.4815 40.1448 31.4698 40.1331 31.1769 40.4026C30.966 40.5901 30.9894 40.6252 31.6925 41.34L32.4306 42.0781L33.8015 40.7072C35.0904 39.4184 35.1607 39.3246 34.9849 39.1254C34.8795 39.0083 34.7623 38.9145 34.7272 38.9145C34.692 38.9145 34.1765 39.3949 33.5789 39.9925Z" fill="black"/>
<path d="M36.8242 42.2306V42.8516L37.6796 42.875L38.5232 42.8984L38.8513 42.3243C39.027 42.0079 39.1676 41.715 39.1676 41.6799C39.1676 41.6447 38.6404 41.6096 37.9959 41.6096H36.8242V42.2306Z" fill="black"/>
<path d="M29.9121 48.055V50.3984H32.1383H34.3646V49.0861V47.7855L34.0717 48.055C33.8256 48.2894 33.7787 48.4417 33.7787 49.0158V49.6954H32.1383H30.4862L30.5214 48.0199L30.5565 46.3561L32.2907 46.3443C33.8373 46.3326 34.0365 46.3092 34.1888 46.11C34.2826 45.9928 34.3646 45.8522 34.3646 45.7936C34.3646 45.7468 33.3686 45.7116 32.1383 45.7116H29.9121V48.055Z" fill="black"/>
<path d="M33.5438 47.1761L32.4424 48.2892L31.9386 47.7971C31.4348 47.305 31.4348 47.305 31.2004 47.5393C30.9661 47.7737 30.9661 47.7737 31.716 48.5118L32.4659 49.25L33.8368 47.8908C35.1842 46.5551 35.2077 46.5199 35.0085 46.2973C34.8913 46.1684 34.7624 46.063 34.7273 46.063C34.6804 46.063 34.1531 46.5668 33.5438 47.1761Z" fill="black"/>
<path d="M36.8242 46.6485C36.8242 47.1875 36.8477 47.2344 37.1054 47.2344C37.3163 47.2344 37.3984 47.1524 37.4569 46.8711C37.5975 46.1681 37.5507 46.0627 37.1757 46.0627C36.8359 46.0627 36.8242 46.0744 36.8242 46.6485Z" fill="black"/>
<path d="M36.8242 49.461C36.8242 50.0117 36.8477 50.0469 37.1171 50.0469C37.3866 50.0469 37.4101 50.0117 37.4101 49.461C37.4101 48.9103 37.3866 48.8752 37.1171 48.8752C36.8477 48.8752 36.8242 48.9103 36.8242 49.461Z" fill="black"/>
<defs>
<filter id="filter0_d_2483_48" x="0" y="0.316406" width="81" height="81" filterUnits="userSpaceOnUse" color-interpolation-filters="sRGB">
<feFlood flood-opacity="0" result="BackgroundImageFix"/>
<feColorMatrix in="SourceAlpha" type="matrix" values="0 0 0 0 0 0 0 0 0 0 0 0 0 0 0 0 0 0 127 0" result="hardAlpha"/>
<feOffset/>
<feGaussianBlur stdDeviation="2"/>
<feComposite in2="hardAlpha" operator="out"/>
<feColorMatrix type="matrix" values="0 0 0 0 0 0 0 0 0 0 0 0 0 0 0 0 0 0 0.25 0"/>
<feBlend mode="normal" in2="BackgroundImageFix" result="effect1_dropShadow_2483_48"/>
<feBlend mode="normal" in="SourceGraphic" in2="effect1_dropShadow_2483_48" result="shape"/>
</filter>
</defs>
</svg>
