<svg width="388" height="272" viewBox="0 0 388 272" fill="none" xmlns="http://www.w3.org/2000/svg">
<rect width="80.4409" height="77.7522" rx="4.65569" fill="#203D74"/>
<rect x="86.8359" width="80.4409" height="77.7522" rx="4.65569" fill="#2964FD"/>
<rect x="171.836" width="80.4409" height="77.7522" rx="4.65569" fill="#010806"/>
<rect y="85.7734" width="252.277" height="186.226" rx="4" fill="#F1F1F1"/>
<rect x="263.793" width="123.469" height="272" rx="4" fill="#F1F1F1"/>
<rect x="7.30078" y="97.4492" width="236.719" height="18.5415" rx="4" fill="white"/>
<rect x="268.98" y="4.87109" width="113.09" height="34.2217" rx="4" fill="white"/>
<rect x="268.98" y="123.434" width="113.09" height="143.143" rx="4" fill="white"/>
<rect x="11.957" y="103.844" width="122.484" height="5.74707" rx="2.87354" fill="#F1F1F1"/>
<rect x="274.129" y="129.871" width="91.5078" height="5.74707" rx="2.87354" fill="#F1F1F1"/>
<rect x="274.129" y="140.008" width="77.6953" height="5.74707" rx="2.87354" fill="#F1F1F1"/>
<rect x="274.129" y="150.148" width="77.6953" height="5.74707" rx="2.87354" fill="#F1F1F1"/>
<rect x="274.129" y="167.797" width="91.5078" height="5.74707" rx="2.87354" fill="#F1F1F1"/>
<rect x="274.129" y="177.938" width="77.6953" height="5.74707" rx="2.87354" fill="#F1F1F1"/>
<rect x="274.129" y="188.074" width="77.6953" height="5.74707" rx="2.87354" fill="#F1F1F1"/>
<rect x="274.129" y="206.59" width="91.5078" height="5.74707" rx="2.87354" fill="#F1F1F1"/>
<rect x="274.129" y="216.727" width="77.6953" height="5.74707" rx="2.87354" fill="#F1F1F1"/>
<rect x="274.129" y="226.867" width="77.6953" height="5.74707" rx="2.87354" fill="#F1F1F1"/>
<rect x="223.055" y="102.082" width="9.95821" height="9.271" rx="1.46962" fill="#2964FC"/>
<rect x="7.30078" y="120.598" width="236.719" height="18.5415" rx="4" fill="white"/>
<rect x="11.957" y="126.996" width="122.484" height="5.74707" rx="2.87354" fill="#F1F1F1"/>
<rect x="223.055" y="125.234" width="9.95821" height="9.271" rx="1.46962" fill="#2964FC"/>
<rect x="7.30078" y="143.75" width="236.719" height="18.5415" rx="4" fill="white"/>
<rect x="11.957" y="150.148" width="122.484" height="5.74707" rx="2.87354" fill="#F1F1F1"/>
<rect x="223.055" y="148.387" width="9.95821" height="9.271" rx="1.46962" fill="#2964FC"/>
<rect x="7.30078" y="166.902" width="236.719" height="18.5415" rx="4" fill="white"/>
<rect x="11.957" y="173.301" width="122.484" height="5.74707" rx="2.87354" fill="#F1F1F1"/>
<rect x="223.055" y="171.539" width="9.95821" height="9.271" rx="1.46962" fill="#2964FC"/>
<rect x="7.30078" y="190.051" width="236.719" height="18.5415" rx="4" fill="white"/>
<rect x="11.957" y="196.449" width="122.484" height="5.74707" rx="2.87354" fill="#F1F1F1"/>
<rect x="223.055" y="194.688" width="9.95821" height="9.271" rx="1.46962" fill="#2964FC"/>
<rect x="7.30078" y="213.203" width="236.719" height="18.5415" rx="4" fill="white"/>
<rect x="11.957" y="219.602" width="122.484" height="5.74707" rx="2.87354" fill="#F1F1F1"/>
<rect x="223.055" y="217.84" width="9.95821" height="9.271" rx="1.46962" fill="#2964FC"/>
<rect x="7.30078" y="236.355" width="236.719" height="18.5415" rx="4" fill="white"/>
<rect x="11.957" y="242.754" width="122.484" height="5.74707" rx="2.87354" fill="#F1F1F1"/>
<rect x="223.055" y="240.992" width="9.95821" height="9.271" rx="1.46962" fill="#2964FC"/>
<path d="M345.288 58.8532C349.996 63.4251 352.972 69.4879 353.71 76.0084C354.449 82.5289 352.903 89.1037 349.338 94.6125C345.772 100.121 340.406 104.223 334.155 106.22C327.904 108.216 321.154 107.983 315.055 105.561C308.957 103.138 303.887 98.6758 300.709 92.9342C297.532 87.1926 296.444 80.5269 297.63 74.0729C298.816 67.6188 302.203 61.7757 307.215 57.5391C312.226 53.3026 318.551 50.9347 325.113 50.839L325.527 79.2L345.288 58.8532Z" fill="#010806"/>
<path d="M344.33 56.7278C339.683 52.7612 333.88 50.4009 327.784 49.998L325.914 78.3004L344.33 56.7278Z" fill="#2964FC"/>
</svg>
