<svg width="323" height="216" viewBox="0 0 323 216" fill="none" xmlns="http://www.w3.org/2000/svg">
<path d="M167 162.272H111.174V188.019H167V162.272Z" fill="#F5F5F5"/>
<path d="M165.674 186.826H112.465V163.654H165.674V186.826ZM112.8 186.478H165.326V163.993H112.8V186.478Z" fill="#E0E0E0"/>
<path d="M180.637 162.272H167V188.019H180.637V162.272Z" fill="#E0E0E0"/>
<path d="M112.628 170.799H165.498C165.513 170.795 165.527 170.786 165.538 170.773C165.548 170.76 165.553 170.744 165.553 170.728C165.553 170.712 165.548 170.696 165.538 170.683C165.527 170.67 165.513 170.661 165.498 170.657H112.628C112.612 170.661 112.598 170.67 112.588 170.683C112.578 170.696 112.572 170.712 112.572 170.728C112.572 170.744 112.578 170.76 112.588 170.773C112.598 170.786 112.612 170.795 112.628 170.799Z" fill="#E0E0E0"/>
<path d="M139.234 170.73C139.381 168.401 139.388 166.065 139.256 163.736C139.256 163.716 139.248 163.698 139.234 163.684C139.221 163.67 139.202 163.663 139.183 163.663C139.163 163.663 139.145 163.67 139.131 163.684C139.117 163.698 139.11 163.716 139.11 163.736C138.977 166.065 138.985 168.401 139.131 170.73C139.131 170.744 139.137 170.757 139.146 170.766C139.156 170.776 139.169 170.781 139.183 170.781C139.196 170.781 139.209 170.776 139.219 170.766C139.229 170.757 139.234 170.744 139.234 170.73Z" fill="#E0E0E0"/>
<path d="M153.477 167.233C153.477 167.375 153.435 167.515 153.355 167.633C153.276 167.752 153.164 167.844 153.032 167.899C152.9 167.953 152.755 167.967 152.615 167.94C152.476 167.912 152.347 167.843 152.246 167.742C152.145 167.642 152.077 167.513 152.049 167.373C152.021 167.233 152.035 167.088 152.09 166.957C152.145 166.825 152.237 166.712 152.356 166.633C152.474 166.554 152.613 166.512 152.756 166.512C152.851 166.512 152.944 166.53 153.032 166.567C153.119 166.603 153.199 166.656 153.266 166.723C153.333 166.79 153.386 166.869 153.422 166.957C153.458 167.044 153.477 167.138 153.477 167.233Z" fill="#E0E0E0"/>
<path d="M125.715 167.233C125.715 167.375 125.673 167.515 125.593 167.634C125.514 167.752 125.401 167.845 125.269 167.899C125.137 167.953 124.992 167.968 124.852 167.939C124.712 167.911 124.584 167.842 124.483 167.741C124.382 167.64 124.314 167.511 124.287 167.371C124.259 167.231 124.274 167.085 124.33 166.954C124.385 166.822 124.478 166.71 124.597 166.631C124.716 166.552 124.856 166.511 124.999 166.512C125.189 166.513 125.371 166.589 125.506 166.724C125.64 166.859 125.715 167.042 125.715 167.233Z" fill="#E0E0E0"/>
<path d="M139.784 175.214C139.784 175.356 139.741 175.496 139.662 175.614C139.583 175.733 139.47 175.825 139.339 175.88C139.207 175.934 139.062 175.948 138.922 175.921C138.782 175.893 138.654 175.824 138.553 175.723C138.452 175.622 138.383 175.494 138.356 175.354C138.328 175.214 138.342 175.069 138.397 174.938C138.451 174.806 138.544 174.693 138.662 174.614C138.781 174.535 138.92 174.493 139.063 174.493C139.157 174.493 139.251 174.511 139.339 174.548C139.426 174.584 139.506 174.637 139.572 174.704C139.639 174.771 139.692 174.85 139.729 174.938C139.765 175.025 139.784 175.119 139.784 175.214Z" fill="#E0E0E0"/>
<path d="M117.846 188.019L114.971 204.183H116.588L121.888 188.019H117.846Z" fill="#E0E0E0"/>
<path d="M163.054 188.019L165.457 204.209H163.839L159.012 188.019H163.054Z" fill="#E0E0E0"/>
<path d="M173.847 188.019L176.572 204.209H174.954L169.805 188.019H173.847Z" fill="#E0E0E0"/>
<path d="M139.748 182.5C139.748 182.643 139.706 182.782 139.627 182.901C139.548 183.019 139.435 183.112 139.303 183.166C139.172 183.221 139.027 183.235 138.887 183.207C138.747 183.179 138.619 183.111 138.518 183.01C138.417 182.909 138.348 182.781 138.32 182.641C138.293 182.501 138.307 182.356 138.362 182.224C138.416 182.093 138.508 181.98 138.627 181.901C138.746 181.822 138.885 181.779 139.028 181.779C139.122 181.779 139.216 181.798 139.303 181.834C139.391 181.87 139.47 181.924 139.537 181.99C139.604 182.057 139.657 182.137 139.694 182.224C139.73 182.312 139.748 182.406 139.748 182.5Z" fill="#E0E0E0"/>
<path d="M112.628 178.771H165.498C165.513 178.767 165.527 178.758 165.538 178.745C165.548 178.732 165.553 178.716 165.553 178.7C165.553 178.684 165.548 178.668 165.538 178.655C165.527 178.642 165.513 178.633 165.498 178.629H112.628C112.612 178.633 112.598 178.642 112.588 178.655C112.578 178.668 112.572 178.684 112.572 178.7C112.572 178.716 112.578 178.732 112.588 178.745C112.598 178.758 112.612 178.767 112.628 178.771Z" fill="#E0E0E0"/>
<path d="M284.636 36.9863H249.338V84.3252H284.636V36.9863Z" fill="#EBEBEB"/>
<path d="M282.795 38.8486H251.174V82.4671H282.795V38.8486Z" fill="#FAFAFA"/>
<path d="M273.493 53.936H261.422V67.7318H273.493V53.936Z" fill="#EBEBEB"/>
<path d="M269.262 95.546V118.469H300.007V95.546H269.262Z" fill="#EBEBEB"/>
<path d="M298.796 96.7437H270.471V117.281H298.796V96.7437Z" fill="#FAFAFA"/>
<path d="M280.271 102.785V110.625H289.231V102.785H280.271Z" fill="#EBEBEB"/>
<path d="M45.5981 55.2705H23.2031V85.3078H45.5981V55.2705Z" fill="#EBEBEB"/>
<path d="M44.4341 56.4502H24.3691V84.1274H44.4341V56.4502Z" fill="#FAFAFA"/>
<path d="M38.5306 66.0239H30.8711V74.7777H38.5306V66.0239Z" fill="#EBEBEB"/>
<path d="M147.858 147.64L146.33 161.804H165.889L167.511 147.64H147.858Z" fill="#EBEBEB"/>
<path d="M148.66 148.656L147.176 161.053H164.825L166.254 148.656H148.66Z" fill="#FAFAFA"/>
<path d="M151.631 150.743L150.717 158.969H161.856L162.427 150.743H151.631Z" fill="#E0E0E0"/>
<path d="M166.811 153.742L170.849 161.86L165.889 161.804L166.871 153.209" fill="#F5F5F5"/>
<path d="M292.352 204.101C292.352 204.161 231.9 204.212 157.352 204.212C82.8034 204.212 22.334 204.161 22.334 204.101C22.334 204.041 82.7734 203.989 157.343 203.989C231.913 203.989 292.352 204.041 292.352 204.101Z" fill="#263238"/>
<path d="M219.104 33.8105H57.6445V140.087H219.104V33.8105Z" fill="#EBEBEB"/>
<path d="M219.103 140.091C219.103 139.361 219.069 98.6394 219.013 33.8103L219.103 33.9004H57.6569L57.7685 33.7888C57.7685 71.5972 57.7685 107.595 57.7685 140.069L57.6655 139.966L219.125 140.069L57.6655 140.168H57.5625V140.069C57.5625 107.573 57.5625 71.5972 57.5625 33.7888V33.6772H57.6869L219.133 33.703H219.219V33.7888C219.129 98.6394 219.103 139.366 219.103 140.091Z" fill="#263238"/>
<path d="M219.104 43.2678C219.104 43.3279 182.956 43.3794 138.376 43.3794C93.7966 43.3794 57.6445 43.3279 57.6445 43.2678C57.6445 43.2077 93.7837 43.1562 138.376 43.1562C182.969 43.1562 219.104 43.2077 219.104 43.2678Z" fill="#263238"/>
<path d="M208.044 58.9902H72.6875V77.5147H208.044V58.9902Z" fill="#E0E0E0"/>
<path d="M100.419 109.912H70.3691V139.962H100.419V109.912Z" fill="#E0E0E0"/>
<path d="M135.945 109.912H105.895V139.962H135.945V109.912Z" fill="#E0E0E0"/>
<path d="M170.406 109.912H140.355V139.962H170.406V109.912Z" fill="#E0E0E0"/>
<path d="M124.104 97.1762H91.5311C90.2152 97.1762 88.953 96.6537 88.0221 95.7236C87.0911 94.7934 86.5675 93.5317 86.5664 92.2157C86.5721 90.9027 87.0976 89.6454 88.0281 88.719C88.9586 87.7926 90.2181 87.2724 91.5311 87.2725H124.104C125.421 87.2725 126.684 87.7955 127.615 88.7266C128.546 89.6577 129.069 90.9205 129.069 92.2372C129.062 93.5495 128.536 94.8057 127.606 95.7312C126.676 96.6567 125.417 97.1762 124.104 97.1762Z" fill="#2964FC"/>
<path d="M162.183 97.1757L162.613 97.1456C162.763 97.1456 162.939 97.0941 163.153 97.0598C164.1 96.8607 164.967 96.3889 165.649 95.7027C166.331 95.0164 166.797 94.1457 166.989 93.1979C167.225 92.0107 167.02 90.7785 166.414 89.7307C166.054 89.1138 165.563 88.5831 164.976 88.1755C164.389 87.7679 163.72 87.4932 163.016 87.3706C162.222 87.2937 161.423 87.2693 160.626 87.2977H158.051H152.473L91.4927 87.332C90.2285 87.3227 89.0106 87.8076 88.0986 88.6833C87.1867 89.5589 86.6528 90.7562 86.6108 92.0198C86.5689 93.2834 87.0221 94.5134 87.8739 95.4477C88.7258 96.382 89.9088 96.9466 91.1709 97.0212C91.8618 97.0555 92.5784 97.0212 93.2778 97.0212H109.468L136.883 97.0469L155.365 97.0813L160.39 97.1027L155.365 97.1242L136.883 97.1585H109.468H93.2778C92.5741 97.1585 91.8789 97.1585 91.158 97.1585C90.4298 97.1131 89.7199 96.9111 89.0769 96.5663C88.0845 96.0283 87.2998 95.1749 86.8467 94.141C86.3937 93.1071 86.2982 91.9516 86.5753 90.8574C86.8524 89.7631 87.4864 88.7924 88.377 88.0988C89.2675 87.4051 90.3639 87.0281 91.4927 87.0273L152.473 87.0574H158.051H160.626C161.431 87.0272 162.237 87.0559 163.037 87.1432C163.699 87.2601 164.33 87.5086 164.894 87.8741C165.458 88.2396 165.942 88.7146 166.319 89.2709C166.695 89.8272 166.956 90.4535 167.086 91.1126C167.216 91.7717 167.212 92.4501 167.075 93.1078C166.866 94.0659 166.384 94.9433 165.689 95.6352C165.177 96.1353 164.564 96.5201 163.891 96.7637C163.653 96.8489 163.409 96.9178 163.162 96.9697C162.943 96.9997 162.763 97.0341 162.617 97.0427L162.183 97.1757Z" fill="#263238"/>
<path d="M118.716 100.648H119.089L118.635 102.918H120.042L119.978 103.24H118.201L118.716 100.648Z" fill="#263238"/>
<path d="M120.327 102.416C120.321 102.262 120.348 102.11 120.404 101.967C120.46 101.824 120.545 101.695 120.653 101.586C120.761 101.477 120.89 101.392 121.033 101.335C121.175 101.279 121.328 101.252 121.481 101.257C121.6 101.244 121.72 101.257 121.833 101.294C121.946 101.332 122.05 101.394 122.137 101.475C122.225 101.557 122.293 101.656 122.338 101.766C122.384 101.877 122.404 101.996 122.399 102.115C122.405 102.268 122.38 102.421 122.324 102.564C122.269 102.707 122.184 102.837 122.077 102.946C121.969 103.055 121.84 103.141 121.697 103.198C121.555 103.255 121.403 103.282 121.249 103.278C121.131 103.287 121.012 103.271 120.9 103.232C120.788 103.192 120.686 103.13 120.599 103.049C120.512 102.968 120.443 102.87 120.396 102.761C120.35 102.652 120.326 102.534 120.327 102.416ZM122.043 102.124C122.05 102.047 122.039 101.969 122.011 101.897C121.984 101.825 121.941 101.76 121.885 101.707C121.829 101.654 121.761 101.614 121.688 101.59C121.614 101.566 121.536 101.56 121.46 101.57C121.354 101.571 121.249 101.593 121.152 101.635C121.055 101.678 120.968 101.74 120.896 101.817C120.824 101.895 120.768 101.987 120.733 102.087C120.698 102.187 120.684 102.293 120.692 102.398C120.686 102.475 120.697 102.552 120.725 102.624C120.753 102.696 120.796 102.761 120.852 102.814C120.908 102.867 120.975 102.906 121.048 102.93C121.121 102.954 121.199 102.962 121.275 102.952C121.381 102.952 121.486 102.93 121.582 102.887C121.679 102.844 121.766 102.782 121.838 102.705C121.91 102.627 121.964 102.535 121.999 102.435C122.034 102.335 122.047 102.229 122.039 102.124H122.043Z" fill="#263238"/>
<path d="M124.92 101.279L124.534 103.24H124.191L124.238 102.999C124.146 103.087 124.038 103.156 123.919 103.201C123.801 103.247 123.674 103.269 123.547 103.265C123.433 103.272 123.318 103.255 123.211 103.214C123.104 103.173 123.006 103.11 122.925 103.029C122.844 102.948 122.781 102.851 122.74 102.744C122.7 102.636 122.682 102.522 122.689 102.407C122.681 102.257 122.704 102.106 122.756 101.965C122.808 101.824 122.889 101.695 122.993 101.587C123.097 101.478 123.223 101.392 123.362 101.334C123.501 101.276 123.65 101.247 123.801 101.249C123.94 101.235 124.08 101.261 124.205 101.323C124.33 101.385 124.435 101.481 124.509 101.6L124.573 101.27L124.92 101.279ZM124.393 102.137C124.399 102.06 124.387 101.982 124.359 101.91C124.331 101.838 124.287 101.773 124.231 101.72C124.175 101.667 124.107 101.627 124.033 101.603C123.96 101.58 123.882 101.573 123.805 101.583C123.699 101.584 123.595 101.607 123.498 101.65C123.402 101.692 123.315 101.754 123.244 101.832C123.172 101.91 123.117 102.001 123.082 102.101C123.047 102.2 123.033 102.306 123.041 102.411C123.035 102.488 123.047 102.565 123.074 102.637C123.102 102.709 123.146 102.774 123.201 102.827C123.257 102.88 123.324 102.92 123.397 102.944C123.471 102.967 123.548 102.975 123.625 102.965C123.732 102.966 123.838 102.944 123.936 102.9C124.035 102.857 124.123 102.794 124.195 102.715C124.268 102.636 124.323 102.542 124.357 102.44C124.391 102.339 124.403 102.231 124.393 102.124V102.137Z" fill="#263238"/>
<path d="M127.605 100.493L127.056 103.239H126.717L126.764 102.999C126.576 103.175 126.326 103.271 126.069 103.265C125.954 103.272 125.84 103.254 125.732 103.214C125.625 103.173 125.528 103.11 125.447 103.029C125.365 102.948 125.302 102.85 125.262 102.743C125.221 102.636 125.204 102.521 125.21 102.407C125.203 102.257 125.226 102.106 125.279 101.966C125.331 101.825 125.412 101.696 125.516 101.588C125.62 101.479 125.745 101.393 125.884 101.335C126.022 101.276 126.171 101.247 126.322 101.248C126.462 101.235 126.603 101.261 126.729 101.324C126.855 101.387 126.961 101.484 127.034 101.604L127.257 100.484L127.605 100.493ZM126.914 102.124C126.921 102.047 126.91 101.969 126.882 101.897C126.855 101.825 126.811 101.76 126.755 101.706C126.699 101.653 126.632 101.613 126.558 101.59C126.485 101.566 126.407 101.559 126.33 101.57C126.224 101.57 126.12 101.592 126.023 101.635C125.926 101.677 125.838 101.739 125.766 101.817C125.694 101.895 125.639 101.987 125.604 102.086C125.569 102.186 125.555 102.293 125.562 102.398C125.556 102.475 125.568 102.553 125.596 102.625C125.624 102.697 125.668 102.762 125.724 102.815C125.78 102.868 125.848 102.908 125.922 102.932C125.995 102.955 126.073 102.962 126.15 102.952C126.256 102.951 126.361 102.929 126.457 102.887C126.554 102.844 126.641 102.782 126.713 102.704C126.785 102.627 126.839 102.535 126.874 102.435C126.909 102.335 126.922 102.229 126.914 102.124Z" fill="#263238"/>
<path d="M128.121 101.278H128.477L128.091 103.239H127.73L128.121 101.278ZM128.181 100.686C128.18 100.652 128.187 100.619 128.2 100.588C128.212 100.557 128.231 100.529 128.256 100.505C128.28 100.482 128.308 100.464 128.34 100.452C128.371 100.44 128.405 100.435 128.438 100.437C128.467 100.436 128.495 100.44 128.521 100.45C128.548 100.46 128.572 100.474 128.593 100.494C128.613 100.513 128.63 100.536 128.642 100.561C128.654 100.587 128.661 100.615 128.662 100.643C128.663 100.677 128.657 100.711 128.644 100.743C128.632 100.775 128.613 100.803 128.589 100.828C128.565 100.852 128.536 100.871 128.504 100.883C128.472 100.896 128.438 100.901 128.404 100.9C128.375 100.901 128.347 100.896 128.32 100.885C128.293 100.875 128.269 100.859 128.248 100.839C128.227 100.819 128.211 100.796 128.199 100.769C128.188 100.743 128.182 100.714 128.181 100.686Z" fill="#263238"/>
<path d="M130.872 101.909C130.871 101.987 130.864 102.064 130.851 102.141L130.632 103.239H130.276L130.495 102.141C130.498 102.086 130.498 102.032 130.495 101.978C130.495 101.72 130.349 101.579 130.04 101.579C129.861 101.569 129.686 101.629 129.551 101.746C129.416 101.862 129.331 102.027 129.314 102.205L129.104 103.239H128.748L129.139 101.278H129.482L129.43 101.527C129.525 101.437 129.637 101.366 129.759 101.32C129.881 101.273 130.012 101.252 130.143 101.257C130.235 101.241 130.33 101.247 130.421 101.273C130.511 101.299 130.594 101.345 130.664 101.408C130.734 101.47 130.789 101.548 130.825 101.635C130.861 101.721 130.877 101.815 130.872 101.909Z" fill="#263238"/>
<path d="M133.565 101.279L133.231 102.995C133.222 103.14 133.185 103.281 133.12 103.41C133.056 103.54 132.967 103.655 132.857 103.749C132.747 103.843 132.62 103.914 132.482 103.958C132.344 104.002 132.199 104.017 132.055 104.004C131.733 104.02 131.415 103.921 131.158 103.725L131.356 103.454C131.562 103.617 131.819 103.701 132.081 103.69C132.174 103.702 132.269 103.694 132.36 103.668C132.45 103.641 132.535 103.597 132.608 103.537C132.681 103.478 132.741 103.404 132.784 103.32C132.828 103.237 132.854 103.145 132.862 103.051L132.892 102.91C132.7 103.09 132.443 103.188 132.179 103.18C132.069 103.19 131.958 103.177 131.853 103.141C131.749 103.106 131.653 103.048 131.572 102.973C131.491 102.898 131.426 102.806 131.383 102.704C131.34 102.602 131.319 102.492 131.321 102.382C131.318 102.235 131.345 102.088 131.401 101.952C131.456 101.816 131.539 101.692 131.644 101.589C131.749 101.486 131.873 101.405 132.01 101.352C132.148 101.298 132.294 101.274 132.441 101.279C132.587 101.266 132.734 101.295 132.864 101.363C132.994 101.43 133.102 101.534 133.175 101.661L133.248 101.3L133.565 101.279ZM133.021 102.077C133.021 101.764 132.806 101.571 132.437 101.571C132.335 101.566 132.233 101.583 132.137 101.621C132.042 101.658 131.955 101.714 131.883 101.786C131.81 101.858 131.754 101.944 131.716 102.04C131.678 102.135 131.661 102.237 131.665 102.339C131.665 102.656 131.883 102.849 132.252 102.849C132.355 102.853 132.456 102.836 132.552 102.798C132.647 102.76 132.733 102.704 132.805 102.631C132.877 102.558 132.934 102.472 132.971 102.377C133.008 102.281 133.025 102.179 133.021 102.077Z" fill="#263238"/>
<path d="M134.729 103.025C134.727 102.99 134.733 102.954 134.745 102.921C134.757 102.888 134.776 102.858 134.801 102.833C134.826 102.807 134.855 102.787 134.888 102.774C134.92 102.76 134.955 102.754 134.991 102.754C135.022 102.754 135.053 102.761 135.081 102.773C135.11 102.785 135.136 102.803 135.158 102.825C135.179 102.848 135.196 102.874 135.207 102.903C135.218 102.933 135.223 102.964 135.222 102.995C135.224 103.03 135.219 103.064 135.207 103.097C135.194 103.13 135.176 103.16 135.152 103.185C135.128 103.21 135.099 103.231 135.066 103.244C135.034 103.258 135 103.265 134.965 103.265C134.933 103.265 134.902 103.259 134.874 103.247C134.845 103.235 134.818 103.217 134.796 103.194C134.774 103.172 134.757 103.146 134.746 103.116C134.734 103.087 134.728 103.056 134.729 103.025Z" fill="#263238"/>
<path d="M135.569 103.025C135.567 102.99 135.572 102.954 135.585 102.921C135.597 102.888 135.616 102.858 135.641 102.833C135.665 102.807 135.695 102.787 135.728 102.774C135.76 102.76 135.795 102.754 135.83 102.754C135.862 102.754 135.892 102.761 135.921 102.773C135.95 102.785 135.976 102.803 135.997 102.825C136.019 102.848 136.036 102.874 136.047 102.903C136.058 102.933 136.063 102.964 136.062 102.995C136.064 103.03 136.059 103.064 136.046 103.097C136.034 103.13 136.016 103.16 135.991 103.185C135.967 103.21 135.938 103.231 135.906 103.244C135.874 103.258 135.84 103.265 135.805 103.265C135.773 103.265 135.742 103.259 135.713 103.247C135.684 103.235 135.658 103.217 135.636 103.194C135.614 103.172 135.597 103.146 135.585 103.116C135.574 103.087 135.568 103.056 135.569 103.025Z" fill="#263238"/>
<path d="M136.406 103.025C136.405 102.989 136.411 102.954 136.424 102.921C136.437 102.888 136.457 102.858 136.481 102.833C136.506 102.807 136.536 102.787 136.569 102.774C136.602 102.76 136.637 102.754 136.672 102.754C136.704 102.754 136.734 102.761 136.763 102.773C136.792 102.785 136.818 102.803 136.839 102.825C136.861 102.848 136.878 102.874 136.889 102.903C136.9 102.933 136.905 102.964 136.904 102.995C136.906 103.03 136.901 103.064 136.888 103.097C136.876 103.13 136.858 103.16 136.833 103.185C136.809 103.21 136.78 103.231 136.748 103.244C136.716 103.258 136.682 103.265 136.647 103.265C136.583 103.265 136.522 103.24 136.477 103.195C136.432 103.15 136.406 103.089 136.406 103.025Z" fill="#263238"/>
<path d="M63.7944 38.9983C63.7944 39.2325 63.725 39.4615 63.5948 39.6563C63.4647 39.851 63.2797 40.0028 63.0633 40.0925C62.8469 40.1821 62.6088 40.2056 62.3791 40.1599C62.1493 40.1142 61.9383 40.0014 61.7727 39.8357C61.607 39.6701 61.4942 39.4591 61.4485 39.2293C61.4028 38.9996 61.4263 38.7615 61.5159 38.5451C61.6056 38.3287 61.7574 38.1437 61.9521 38.0136C62.1469 37.8834 62.3759 37.814 62.6101 37.814C62.9242 37.814 63.2255 37.9387 63.4476 38.1608C63.6697 38.383 63.7944 38.6842 63.7944 38.9983Z" fill="#263238"/>
<path d="M68.8413 38.9983C68.8413 39.2325 68.7719 39.4615 68.6417 39.6563C68.5116 39.851 68.3266 40.0028 68.1102 40.0925C67.8938 40.1821 67.6557 40.2056 67.4259 40.1599C67.1962 40.1142 66.9852 40.0014 66.8195 39.8357C66.6539 39.6701 66.5411 39.4591 66.4954 39.2293C66.4497 38.9996 66.4732 38.7615 66.5628 38.5451C66.6524 38.3287 66.8042 38.1437 66.999 38.0136C67.1938 37.8834 67.4227 37.814 67.657 37.814C67.9711 37.814 68.2723 37.9387 68.4944 38.1608C68.7165 38.383 68.8413 38.6842 68.8413 38.9983Z" fill="#263238"/>
<path d="M73.8687 38.9983C73.8687 39.2327 73.7991 39.4619 73.6688 39.6567C73.5384 39.8516 73.3532 40.0034 73.1366 40.0929C72.9199 40.1824 72.6815 40.2056 72.4517 40.1596C72.2218 40.1135 72.0108 40.0003 71.8454 39.8342C71.6799 39.6682 71.5674 39.4567 71.5222 39.2267C71.477 38.9967 71.5011 38.7584 71.5914 38.5421C71.6817 38.3258 71.8341 38.1411 72.0295 38.0115C72.2248 37.8819 72.4542 37.8131 72.6886 37.814C73.002 37.8151 73.3021 37.9404 73.5233 38.1624C73.7445 38.3843 73.8687 38.6849 73.8687 38.9983Z" fill="#263238"/>
<path d="M202.276 135.367C233.397 135.367 258.626 110.138 258.626 79.0165C258.626 47.8953 233.397 22.6665 202.276 22.6665C171.155 22.6665 145.926 47.8953 145.926 79.0165C145.926 110.138 171.155 135.367 202.276 135.367Z" fill="#F5F5F5"/>
<path d="M258.608 79.0166C258.608 79.0166 258.608 78.7077 258.573 78.1026C258.573 77.798 258.552 77.4247 258.539 76.9784C258.526 76.5321 258.539 76.0086 258.462 75.425C258.384 74.8415 258.363 74.1763 258.303 73.4554C258.243 72.7346 258.114 71.9407 258.007 71.0868C257.725 69.1235 257.344 67.1757 256.865 65.251C256.251 62.8446 255.48 60.4809 254.557 58.175C253.469 55.4288 252.157 52.7766 250.635 50.2452C246.926 44.0533 242.074 38.6231 236.337 34.2439C229.367 28.9387 221.252 25.3383 212.642 23.7308C205.346 22.3819 197.857 22.4679 190.594 23.984C185.427 25.074 180.442 26.8975 175.79 29.3993C173.381 30.6997 171.065 32.1665 168.86 33.789C164.312 37.1488 160.299 41.178 156.957 45.7396C155.238 48.0763 153.704 50.5441 152.37 53.1202C152.048 53.7767 151.679 54.4075 151.391 55.0898L150.473 57.098C149.928 58.4668 149.37 59.84 148.92 61.256C147.969 64.0922 147.252 67.0011 146.774 69.9539C146.304 72.9495 146.057 75.9759 146.036 79.0081C146.056 82.0401 146.301 85.0665 146.77 88.0622C147.25 91.0174 147.967 93.929 148.915 96.7687L149.276 97.82L149.452 98.3478L149.654 98.8627C149.94 99.555 150.211 100.243 150.469 100.927L151.379 102.935C151.666 103.609 152.035 104.248 152.357 104.905C153.691 107.482 155.225 109.951 156.944 112.289C158.638 114.578 160.49 116.745 162.488 118.773C164.477 120.739 166.597 122.567 168.835 124.244C171.05 125.865 173.374 127.331 175.79 128.634C178.145 129.886 180.582 130.977 183.085 131.9C185.543 132.779 188.056 133.495 190.607 134.045C197.87 135.562 205.359 135.648 212.655 134.298C221.264 132.688 229.377 129.086 236.346 123.781C242.085 119.403 246.939 113.972 250.648 107.78C252.167 105.247 253.477 102.595 254.565 99.8497C255.497 97.5468 256.274 95.1843 256.891 92.778C257.423 90.6025 257.797 88.65 258.037 86.9422C258.14 86.084 258.256 85.303 258.333 84.5778C258.41 83.8527 258.44 83.1961 258.487 82.6082C258.535 82.0204 258.556 81.5012 258.565 81.0549C258.573 80.6086 258.59 80.231 258.599 79.9306C258.599 79.3256 258.633 79.0166 258.633 79.0166C258.633 79.0166 258.633 79.3256 258.633 79.9306C258.633 80.231 258.633 80.6086 258.608 81.0549C258.582 81.5012 258.608 82.0247 258.539 82.6125C258.47 83.2004 258.449 83.8569 258.393 84.5821C258.337 85.3073 258.213 86.0969 258.11 86.9508C257.833 88.9183 257.457 90.8704 256.981 92.7995C256.378 95.2127 255.612 97.5824 254.69 99.8926C253.602 102.655 252.289 105.323 250.763 107.87C247.055 114.083 242.199 119.534 236.453 123.931C229.466 129.255 221.328 132.866 212.693 134.474C205.373 135.831 197.858 135.751 190.569 134.238C185.368 133.152 180.351 131.324 175.67 128.81C173.251 127.505 170.926 126.034 168.71 124.407C166.463 122.725 164.332 120.891 162.334 118.919C160.324 116.882 158.46 114.707 156.755 112.41C155.028 110.062 153.487 107.583 152.147 104.995C151.825 104.338 151.456 103.707 151.164 103.021L150.25 101.004C149.98 100.313 149.709 99.6265 149.435 98.9357L149.229 98.4165L149.053 97.8887L148.692 96.8288C147.739 93.9787 147.022 91.0553 146.547 88.0879C145.56 82.0691 145.56 75.9298 146.547 69.911C147.022 66.9451 147.74 64.0231 148.692 61.1745C149.143 59.7541 149.705 58.381 150.25 57.0036L151.164 54.9868C151.456 54.3088 151.825 53.6694 152.147 53.0129C153.486 50.4256 155.027 47.9477 156.755 45.6023C158.458 43.3028 160.322 41.1275 162.334 39.0927C164.334 37.1308 166.466 35.3072 168.714 33.6345C170.929 32.0008 173.254 30.5239 175.674 29.2147C180.355 26.7012 185.372 24.8731 190.573 23.7866C197.861 22.2678 205.374 22.1862 212.693 23.5463C221.328 25.1695 229.463 28.7904 236.449 34.1194C242.196 38.5156 247.052 43.9666 250.759 50.1808C252.278 52.7215 253.587 55.3823 254.673 58.1364C255.594 60.4468 256.36 62.8165 256.964 65.2295C257.492 67.4094 257.857 69.3704 258.093 71.0782C258.196 71.9364 258.307 72.7217 258.376 73.4469C258.444 74.1721 258.479 74.8329 258.522 75.4207C258.565 76.0086 258.608 76.545 258.608 76.9741C258.608 77.4032 258.608 77.798 258.633 78.1026C258.608 78.6905 258.608 79.0166 258.608 79.0166Z" fill="#263238"/>
<mask id="mask0_538_943" style="mask-type:luminance" maskUnits="userSpaceOnUse" x="151" y="26" width="103" height="89">
<path d="M179.696 98.6862C175.617 94.3594 172.904 88.9265 171.895 83.0664C170.886 77.2063 171.627 71.1788 174.025 65.7372C176.422 60.2957 180.37 55.6813 185.375 52.4708C190.38 49.2603 196.221 47.5961 202.166 47.6861C208.112 47.776 213.899 49.6162 218.805 52.9767C223.711 56.3372 227.517 61.0688 229.749 66.5805C231.981 72.0921 232.539 78.1392 231.353 83.9661C230.167 89.793 227.291 95.1413 223.083 99.3427L238.308 114.207C245.477 107.09 250.378 98.0101 252.392 88.1114C254.407 78.2126 253.444 67.939 249.626 58.5867C245.808 49.2344 239.306 41.2224 230.939 35.5616C222.573 29.9007 212.717 26.8447 202.616 26.7789C192.514 26.7132 182.62 29.6407 174.18 35.1922C165.741 40.7436 159.135 48.6703 155.195 57.9721C151.256 67.2739 150.16 77.5341 152.045 87.4582C153.93 97.3823 158.713 106.526 165.789 113.735L179.696 98.6862Z" fill="white"/>
</mask>
<g mask="url(#mask0_538_943)">
<path d="M179.694 98.6867C175.615 94.3599 172.902 88.927 171.893 83.0669C170.884 77.2067 171.625 71.1793 174.023 65.7377C176.42 60.2962 180.368 55.6818 185.373 52.4713C190.378 49.2608 196.219 47.5966 202.164 47.6866C208.11 47.7765 213.897 49.6167 218.803 52.9772C223.709 56.3376 227.515 61.0693 229.747 66.5809C231.979 72.0926 232.537 78.1397 231.351 83.9666C230.166 89.7935 227.289 95.1418 223.081 99.3432L238.306 114.207C245.475 107.091 250.376 98.0106 252.39 88.1118C254.405 78.2131 253.442 67.9395 249.624 58.5872C245.806 49.2349 239.304 41.2229 230.937 35.5621C222.571 29.9012 212.715 26.8452 202.614 26.7794C192.512 26.7137 182.618 29.6412 174.178 35.1926C165.739 40.7441 159.133 48.6708 155.193 57.9726C151.254 67.2744 150.158 77.5346 152.043 87.4587C153.928 97.3828 158.711 106.526 165.787 113.735L179.694 98.6867Z" fill="#2964FC"/>
<g opacity="0.8">
<path d="M229.034 77.6689H256.535C256.535 77.6689 253.754 100.055 253.197 100.472C252.639 100.888 236.371 119.661 236.371 119.661L217.877 97.691L229.034 77.6689Z" fill="black"/>
</g>
<g opacity="0.7">
<path d="M221.617 59.1531L241.077 40.0493L254.778 60.4919L256.606 77.6689H229.367L224.406 66.7482L221.617 59.1531Z" fill="black"/>
</g>
<g opacity="0.5">
<path d="M203.473 52.2233C203.143 51.6654 203.473 24.6919 203.473 24.6919L220.242 26.7988L240.891 40.1268L221.053 59.591L208.562 57.7844L203.473 52.2233Z" fill="black"/>
</g>
<g opacity="0.3">
<path d="M163.527 41.1008C163.956 41.2381 182.022 60.565 182.022 60.565L198.152 54.1713L203.327 47.7347L203.473 24.709L184.249 26.8159L163.527 41.1008Z" fill="black"/>
</g>
<g opacity="0.1">
<path d="M149.326 77.6695C149.755 77.9484 179.917 77.6695 179.917 77.6695L179.385 57.8106L164.821 42.3628L154.887 54.1718L149.326 77.6695Z" fill="black"/>
</g>
</g>
<path d="M202.846 90.7565C209.33 90.7565 214.586 85.5002 214.586 79.0162C214.586 72.5322 209.33 67.2759 202.846 67.2759C196.362 67.2759 191.105 72.5322 191.105 79.0162C191.105 85.5002 196.362 90.7565 202.846 90.7565Z" fill="#E0E0E0"/>
<path d="M199.391 79.8017C199.638 80.6455 200.208 81.3576 200.977 81.7829C201.746 82.2081 202.652 82.3119 203.498 82.0717L244.331 70.4858L202.189 75.5579C201.709 75.6163 201.247 75.7784 200.836 76.0331C200.425 76.2877 200.074 76.6287 199.808 77.0324C199.542 77.4362 199.367 77.893 199.295 78.3712C199.223 78.8494 199.256 79.3375 199.391 79.8017Z" fill="#455A64"/>
<path d="M196.575 104.411L194.33 115.803H191.352L192.524 109.796L188.731 114.679H187.315L185.229 109.8L184.028 115.808H181.062L183.341 104.415H185.963L188.662 111.002L193.811 104.411H196.575Z" fill="#263238"/>
<path d="M207.542 106.981L205.783 115.804H202.852L203.032 114.976C202.342 115.622 201.425 115.972 200.479 115.95C198.574 115.95 196.75 114.504 196.75 111.929C196.75 109.002 198.896 106.835 201.535 106.835C202.723 106.835 203.68 107.196 204.238 108.041L204.448 106.981H207.542ZM203.65 111.002C203.67 110.776 203.641 110.549 203.564 110.336C203.487 110.123 203.365 109.929 203.205 109.768C203.046 109.608 202.854 109.483 202.641 109.404C202.429 109.325 202.202 109.294 201.976 109.311C200.754 109.311 199.874 110.303 199.874 111.783C199.854 112.008 199.884 112.235 199.962 112.448C200.039 112.66 200.162 112.853 200.322 113.013C200.482 113.173 200.675 113.296 200.887 113.373C201.1 113.451 201.326 113.48 201.552 113.461C202.792 113.448 203.654 112.47 203.654 111.002H203.65Z" fill="#263238"/>
<path d="M214.407 111.427L216.798 115.804H213.511L212.305 113.495L210.159 115.804H206.684L211.095 111.302L208.765 107.011H212.004L213.176 109.26L215.279 107.011H218.699L214.407 111.427Z" fill="#263238"/>
<path d="M217.626 114.259C217.619 113.997 217.665 113.736 217.763 113.493C217.86 113.25 218.007 113.029 218.193 112.844C218.379 112.66 218.601 112.515 218.845 112.42C219.089 112.325 219.35 112.28 219.612 112.29C219.839 112.277 220.066 112.312 220.278 112.392C220.49 112.472 220.684 112.596 220.845 112.755C221.007 112.914 221.133 113.105 221.217 113.316C221.3 113.527 221.338 113.754 221.329 113.98C221.335 114.241 221.289 114.5 221.192 114.742C221.095 114.984 220.951 115.203 220.766 115.387C220.582 115.572 220.363 115.717 220.121 115.813C219.879 115.91 219.62 115.956 219.359 115.95C219.133 115.959 218.907 115.922 218.695 115.841C218.483 115.76 218.29 115.637 218.128 115.478C217.966 115.32 217.837 115.13 217.751 114.921C217.665 114.711 217.622 114.486 217.626 114.259Z" fill="#263238"/>
<path d="M197.168 124.326H200.726L200.554 125.21H195.443L195.585 124.519L199.048 121.747C200.005 120.974 200.288 120.507 200.288 119.927C200.288 119.348 199.859 118.902 198.898 118.902C198.553 118.902 198.213 118.972 197.896 119.107C197.58 119.243 197.294 119.442 197.057 119.691L196.387 119.103C196.731 118.747 197.145 118.466 197.603 118.278C198.061 118.09 198.553 118 199.048 118.013C200.49 118.013 201.314 118.747 201.314 119.794C201.314 120.618 200.957 121.33 199.739 122.292L197.168 124.326Z" fill="#263238"/>
<path d="M204.11 118.979L203.522 120.931H204.213C206.032 120.931 206.856 121.682 206.856 122.832C206.856 124.304 205.646 125.291 203.827 125.291C203.373 125.319 202.918 125.255 202.49 125.101C202.062 124.948 201.67 124.709 201.338 124.398L201.874 123.613C202.139 123.876 202.456 124.081 202.805 124.214C203.154 124.347 203.527 124.405 203.9 124.385C205.127 124.385 205.839 123.849 205.839 122.944C205.839 122.244 205.333 121.815 204.033 121.815H202.316L203.423 118.095H207.44L207.264 118.979H204.11Z" fill="#263238"/>
<path d="M207.832 122.678C207.832 120.211 209.227 118.014 211.432 118.014C212.925 118.014 213.831 118.979 213.831 120.627C213.831 123.099 212.428 125.291 210.244 125.291C208.737 125.291 207.832 124.326 207.832 122.678ZM212.814 120.648C212.814 119.52 212.265 118.932 211.351 118.932C209.746 118.932 208.849 121.017 208.849 122.674C208.849 123.802 209.398 124.39 210.325 124.39C211.917 124.386 212.814 122.305 212.814 120.648Z" fill="#263238"/>
<path d="M263.732 195.201L265.556 198.144L270.199 192.781L267.753 190.185L263.732 195.201Z" fill="#2964FC"/>
<path d="M269.787 192.231C269.614 192.532 269.406 192.81 269.165 193.06C268.736 193.549 268.165 194.205 267.5 194.918L265.784 196.728C265.561 196.993 265.311 197.234 265.037 197.445C265.215 197.148 265.425 196.872 265.664 196.621C266.093 196.132 266.668 195.475 267.329 194.763L269.045 192.952C269.267 192.688 269.516 192.446 269.787 192.231Z" fill="#263238"/>
<path d="M265.514 192.51C265.942 192.772 266.327 193.099 266.655 193.48C267.037 193.805 267.368 194.186 267.638 194.609C267.211 194.344 266.826 194.017 266.496 193.639C266.116 193.312 265.785 192.932 265.514 192.51Z" fill="#263238"/>
<g opacity="0.6">
<path d="M265.554 198.144L270.197 192.781L269.738 192.287L264.996 197.496L265.494 198.093" fill="white"/>
</g>
<path d="M227.103 202.234V201.509L234.437 201.565V203.95L234.008 203.976C231.991 204.071 223.752 204.315 222.422 203.929C220.886 203.496 227.103 202.234 227.103 202.234Z" fill="#2964FC"/>
<g opacity="0.6">
<path d="M231.787 203.881C231.906 203.298 232.244 202.782 232.731 202.439C233.229 202.082 233.837 201.912 234.448 201.959V203.855L231.787 203.881Z" fill="white"/>
</g>
<g opacity="0.6">
<path d="M224.063 202.95C224.063 202.95 221.883 203.521 222.149 203.856C222.416 204.19 230.753 204.233 234.43 203.95V203.8L224.707 203.826C224.707 203.826 224.488 202.967 224.063 202.95Z" fill="white"/>
</g>
<path d="M234.539 203.796H234.41H234.049L232.724 203.843C231.604 203.873 230.054 203.899 228.342 203.89C226.63 203.881 225.081 203.847 223.961 203.804L222.635 203.744L222.275 203.723H222.15H222.635L223.961 203.753C225.085 203.783 226.63 203.808 228.342 203.817C230.054 203.826 231.599 203.817 232.724 203.817L234.049 203.796H234.539Z" fill="#263238"/>
<path d="M224.708 203.933C224.653 203.727 224.573 203.528 224.468 203.341C224.344 203.168 224.2 203.009 224.039 202.869C224.261 202.942 224.447 203.095 224.563 203.298C224.693 203.483 224.745 203.711 224.708 203.933Z" fill="#263238"/>
<path d="M226.854 202.929C226.854 202.929 226.734 202.822 226.627 202.667C226.52 202.513 226.455 202.371 226.477 202.363C226.498 202.354 226.597 202.466 226.704 202.625C226.811 202.783 226.884 202.916 226.854 202.929Z" fill="#263238"/>
<path d="M227.459 202.641C227.459 202.641 227.326 202.585 227.201 202.478C227.077 202.371 226.991 202.272 227.008 202.255C227.104 202.288 227.191 202.344 227.261 202.418C227.386 202.525 227.476 202.624 227.459 202.641Z" fill="#263238"/>
<path d="M227.836 202.003C227.713 202.044 227.583 202.058 227.454 202.046C227.327 202.058 227.198 202.045 227.076 202.007C227.197 201.964 227.326 201.949 227.454 201.964C227.582 201.949 227.713 201.962 227.836 202.003Z" fill="#263238"/>
<path d="M227.968 201.552C227.837 201.628 227.689 201.666 227.538 201.663C227.393 201.686 227.244 201.666 227.109 201.608C227.251 201.586 227.395 201.577 227.538 201.582C227.68 201.556 227.824 201.546 227.968 201.552Z" fill="#263238"/>
<path d="M226.622 202.333C226.467 202.361 226.309 202.361 226.154 202.333C225.985 202.314 225.819 202.279 225.656 202.23C225.557 202.203 225.46 202.166 225.369 202.118C225.341 202.104 225.317 202.085 225.297 202.061C225.277 202.038 225.262 202.01 225.253 201.981C225.247 201.948 225.25 201.914 225.263 201.884C225.276 201.853 225.298 201.827 225.326 201.809C225.505 201.728 225.706 201.706 225.898 201.749C226.09 201.792 226.262 201.896 226.39 202.045C226.459 202.131 226.51 202.231 226.54 202.337C226.54 202.414 226.54 202.457 226.54 202.457C226.495 202.32 226.424 202.193 226.33 202.084C226.223 201.967 226.087 201.883 225.935 201.839C225.75 201.779 225.549 201.792 225.373 201.873C225.3 201.921 225.326 202.002 225.407 202.049C225.492 202.094 225.581 202.13 225.673 202.157C225.831 202.207 225.992 202.247 226.154 202.277C226.424 202.32 226.622 202.32 226.622 202.333Z" fill="#263238"/>
<path d="M226.502 202.354C226.473 202.31 226.454 202.261 226.445 202.209C226.436 202.157 226.438 202.104 226.45 202.053C226.466 201.938 226.511 201.829 226.579 201.736C226.622 201.669 226.68 201.614 226.749 201.575C226.817 201.536 226.895 201.515 226.974 201.513C226.997 201.516 227.018 201.524 227.038 201.537C227.057 201.549 227.074 201.565 227.087 201.584C227.101 201.602 227.11 201.624 227.115 201.646C227.12 201.669 227.12 201.692 227.116 201.714C227.104 201.785 227.076 201.853 227.034 201.912C226.971 202.008 226.896 202.096 226.811 202.174C226.736 202.252 226.643 202.312 226.541 202.349C226.541 202.349 226.635 202.272 226.764 202.135C226.839 202.054 226.907 201.967 226.965 201.873C227.03 201.779 227.073 201.616 226.965 201.594C226.858 201.573 226.729 201.693 226.656 201.779C226.588 201.86 226.541 201.958 226.519 202.062C226.5 202.158 226.495 202.256 226.502 202.354Z" fill="#263238"/>
<path d="M234.408 201.937C234.408 201.937 234.198 201.937 233.868 201.937C233.444 201.977 233.038 202.124 232.688 202.366C232.352 202.61 232.094 202.945 231.945 203.332C231.829 203.619 231.817 203.817 231.799 203.812C231.791 203.767 231.791 203.721 231.799 203.675C231.815 203.551 231.844 203.429 231.885 203.31C232.028 202.907 232.288 202.556 232.632 202.302C232.994 202.047 233.421 201.899 233.863 201.873C233.998 201.861 234.133 201.861 234.267 201.873C234.317 201.887 234.364 201.909 234.408 201.937Z" fill="#263238"/>
<path d="M230.874 203.217C230.164 203.338 229.439 203.338 228.729 203.217C228.729 203.191 229.205 203.217 229.793 203.217C230.381 203.217 230.87 203.195 230.874 203.217Z" fill="#263238"/>
<path d="M232.303 203.22C232.303 203.22 232.264 203.315 232.213 203.418C232.161 203.521 232.14 203.607 232.114 203.607C232.088 203.607 232.076 203.499 232.114 203.384C232.153 203.268 232.29 203.208 232.303 203.22Z" fill="#263238"/>
<path d="M232.863 202.603C232.863 202.603 232.833 202.689 232.755 202.758C232.678 202.826 232.605 202.874 232.588 202.857C232.57 202.839 232.618 202.771 232.695 202.702C232.773 202.633 232.833 202.585 232.863 202.603Z" fill="#263238"/>
<path d="M233.625 202.32C233.625 202.342 233.522 202.342 233.415 202.376C233.308 202.41 233.231 202.466 233.209 202.449C233.188 202.432 233.252 202.342 233.385 202.299C233.518 202.256 233.634 202.299 233.625 202.32Z" fill="#263238"/>
<path d="M234.176 202.187C234.176 202.208 234.141 202.243 234.081 202.264C234.021 202.286 233.965 202.29 233.956 202.264C233.948 202.239 233.991 202.208 234.051 202.187C234.111 202.165 234.15 202.17 234.176 202.187Z" fill="#263238"/>
<path d="M224.085 106.926L212.761 95.4516L214.198 80.5059L214.456 80.2098C214.597 80.0467 214.756 79.8665 214.945 79.6691C215.163 79.4458 215.417 79.2602 215.696 79.1199C216.036 78.9305 216.4 78.7862 216.777 78.6908C217.133 78.6436 217.249 78.193 216.966 78.0428C216.683 77.8926 215.705 78.0085 214.726 78.6264C213.748 79.2443 214.344 77.5493 214.546 76.91C214.748 76.2706 215.297 74.3353 215.151 74.1251C214.945 73.8204 214.567 73.9921 214.374 74.6143C214.181 75.2365 213.482 77.0816 213.156 76.9658C212.83 76.8499 213.924 73.696 213.924 73.696C213.924 73.696 214.267 73.0609 213.894 72.915C213.224 72.649 212.319 76.0818 212.237 76.4079C212.186 76.6353 211.808 76.5238 211.898 76.2835C211.988 76.0432 213.057 73.1596 212.375 72.885C211.855 72.6747 211.602 75.6999 211.044 76.1805C210.487 76.6611 211.474 73.9019 210.967 73.7217C210.778 73.6531 210.624 73.6273 210.289 75.288C210.014 76.4315 209.799 77.5889 209.646 78.7551L206.084 96.6102L217.241 111.367L224.085 106.926Z" fill="#FFBE9D"/>
<path d="M229.857 74.0734C229.389 74.3394 230.852 76.8797 230.217 76.5107C229.582 76.1417 228.792 73.2023 228.32 73.507C227.698 73.9017 229.282 76.5322 229.397 76.7639C229.513 76.9956 229.179 77.1672 229.084 76.9484C228.947 76.6394 227.441 73.4297 226.831 73.8073C226.492 74.0176 226.943 74.584 226.943 74.584C226.943 74.584 228.574 77.4934 228.282 77.6607C227.99 77.8281 226.964 76.1588 226.66 75.5667C226.355 74.9745 225.96 74.8844 225.801 75.2234C225.699 75.4551 226.582 77.2788 226.896 77.8538C227.209 78.4288 228.093 79.9993 227.02 79.5702C225.947 79.1411 224.965 79.2012 224.716 79.3986C224.467 79.596 224.66 80.0165 225.016 79.9993C225.405 80.0259 225.789 80.1038 226.158 80.231C226.467 80.323 226.757 80.4682 227.016 80.6601C227.235 80.8189 227.424 80.9691 227.591 81.0892L227.9 81.3338L234.019 96.4212L228.462 109.359L237.078 112.568L240.94 95.4557L232.062 78.8064C231.702 77.6876 231.282 76.589 230.805 75.5152C230.178 73.9232 230.032 73.9704 229.857 74.0734Z" fill="#FFBE9D"/>
<path d="M249.082 165.742L243.504 136.949L235.599 137.631V137.563L221.164 138.872C221.164 138.872 220.486 171.938 220.246 171.938L224.202 202.083L235.599 201.564L231.197 171.557L232.819 147.479L233.145 147.05L239.727 171.66L262.183 197.071L269.477 189.999L249.082 165.742Z" fill="#455A64"/>
<path d="M231.484 167.013C231.474 166.93 231.474 166.846 231.484 166.764C231.484 166.579 231.484 166.335 231.51 166.06C231.54 165.421 231.587 164.545 231.643 163.485C231.78 161.275 231.969 158.276 232.175 154.959C232.385 151.955 232.579 149.2 232.724 147.098V147.072L234.703 144.721L235.252 144.09C235.381 143.944 235.449 143.871 235.458 143.88C235.409 143.964 235.353 144.045 235.29 144.12L234.776 144.781L232.862 147.149V147.102C232.729 149.205 232.557 151.955 232.368 154.963C232.137 158.28 231.939 161.275 231.772 163.485C231.686 164.554 231.617 165.425 231.566 166.06C231.536 166.343 231.514 166.575 231.497 166.759C231.504 166.844 231.5 166.929 231.484 167.013Z" fill="#263238"/>
<path d="M235.582 137.563C235.695 138.477 235.732 139.399 235.694 140.318C235.732 141.238 235.695 142.16 235.582 143.073C235.434 141.24 235.434 139.397 235.582 137.563Z" fill="#263238"/>
<path d="M225.85 140.052C225.966 140.019 226.085 139.998 226.206 139.992L227.257 139.868C228.171 139.76 229.489 139.614 231.068 139.438H231.175V139.546C231.175 140.902 231.175 142.459 231.175 144.12V144.189L231.115 144.219L231.033 144.257L228.291 145.63L228.236 145.656L228.188 145.626L225.803 144.214L225.76 144.184V144.137C225.76 142.914 225.794 141.897 225.803 141.133L225.828 140.327C225.818 140.237 225.818 140.146 225.828 140.056C225.841 140.157 225.848 140.259 225.85 140.361C225.85 140.58 225.85 140.855 225.85 141.189C225.85 141.927 225.876 142.927 225.897 144.129L225.85 144.047L228.253 145.433H228.154L230.905 144.069L230.986 144.026L230.922 144.129C230.922 142.468 230.922 140.91 230.922 139.554L231.033 139.653C229.489 139.79 228.193 139.893 227.27 139.962L226.193 140.039C226.079 140.049 225.964 140.053 225.85 140.052Z" fill="#263238"/>
<path d="M236.963 138.971C237.079 138.941 237.199 138.922 237.319 138.915L238.37 138.787C239.284 138.679 240.602 138.533 242.181 138.357H242.288V138.469C242.288 139.821 242.288 141.383 242.288 143.039V143.108L242.224 143.138L242.142 143.181L239.387 144.537L239.336 144.558L239.284 144.532L236.898 143.116L236.855 143.09V143.056C236.855 141.833 236.89 140.816 236.903 140.052V139.241C236.892 139.152 236.892 139.061 236.903 138.971C236.915 139.072 236.922 139.174 236.924 139.276C236.924 139.499 236.924 139.769 236.924 140.104C236.924 140.842 236.95 141.842 236.971 143.043L236.924 142.966L239.327 144.352H239.297L242.048 142.987L242.129 142.949L242.065 143.048C242.065 141.391 242.065 139.829 242.065 138.478L242.172 138.576C240.627 138.714 239.331 138.817 238.409 138.885L237.332 138.962C237.209 138.973 237.086 138.976 236.963 138.971Z" fill="#263238"/>
<path d="M231.179 140.696C229.413 140.927 227.63 141.011 225.85 140.945C226.728 140.79 227.618 140.711 228.51 140.709C229.398 140.631 230.291 140.627 231.179 140.696Z" fill="#263238"/>
<path d="M242.196 139.683C240.466 139.961 238.717 140.095 236.965 140.082C237.822 139.903 238.694 139.798 239.57 139.769C240.441 139.668 241.319 139.639 242.196 139.683Z" fill="#263238"/>
<path d="M230.285 171.304C228.579 171.664 226.844 171.877 225.102 171.939C226.808 171.579 228.542 171.367 230.285 171.304Z" fill="#263238"/>
<path d="M248.359 166.365C248.359 166.43 247.123 166.867 245.703 167.653C244.283 168.438 243.248 169.279 243.201 169.227C243.383 168.998 243.599 168.796 243.841 168.631C244.393 168.192 244.98 167.799 245.596 167.455C246.211 167.118 246.852 166.831 247.514 166.597C247.781 166.475 248.067 166.396 248.359 166.365Z" fill="#263238"/>
<path d="M224.087 66.6752C224.056 66.6239 224.029 66.5709 224.005 66.5164L223.773 66.0444C223.675 65.8385 223.559 65.5724 223.404 65.2763L222.846 64.2508C222.632 63.8732 222.362 63.4655 222.083 63.0107C221.804 62.5558 221.448 62.0967 221.079 61.5989C220.216 60.4853 219.268 59.4408 218.242 58.475C215.55 55.9715 212.336 54.097 208.832 52.9868C206.767 52.3377 204.62 51.9894 202.455 51.9526C197.785 51.8508 193.182 53.0754 189.179 55.4842C187.321 56.5968 185.63 57.9679 184.158 59.5564C181.67 62.2626 179.812 65.4866 178.717 68.9967C178.309 70.343 178.005 71.7188 177.808 73.1118C177.735 73.7254 177.679 74.3047 177.64 74.8282C177.602 75.3517 177.589 75.8452 177.593 76.2829C177.597 76.7206 177.593 77.1068 177.619 77.4457C177.645 77.7847 177.666 78.0679 177.679 78.304C177.692 78.54 177.709 78.6987 177.718 78.8275C177.721 78.8875 177.721 78.9477 177.718 79.0077C177.703 78.9499 177.693 78.8911 177.688 78.8318C177.688 78.703 177.653 78.5271 177.632 78.3082C177.61 78.0894 177.567 77.7933 177.546 77.45C177.524 77.1068 177.52 76.7206 177.503 76.2829C177.486 75.8452 177.503 75.356 177.529 74.8196C177.554 74.2832 177.61 73.7082 177.679 73.1032C177.855 71.6981 178.142 70.3091 178.537 68.9495C179.62 65.4077 181.479 62.152 183.978 59.4191C185.459 57.812 187.162 56.4261 189.037 55.3039C193.072 52.866 197.717 51.629 202.43 51.7381C204.615 51.7789 206.783 52.1344 208.866 52.7937C212.396 53.9253 215.629 55.8311 218.328 58.372C219.352 59.3504 220.298 60.4078 221.156 61.5345C221.525 62.0409 221.855 62.5172 222.151 62.9678C222.447 63.4183 222.692 63.826 222.902 64.2207L223.443 65.2592C223.593 65.5595 223.7 65.8256 223.795 66.0401C223.889 66.2547 223.954 66.4049 224.005 66.5207C224.036 66.5701 224.063 66.6217 224.087 66.6752Z" fill="#263238"/>
<path d="M219.234 65.4905C219.157 65.4141 219.089 65.3292 219.032 65.2373C218.903 65.0657 218.736 64.8082 218.483 64.4821C217.794 63.5651 217.033 62.7041 216.208 61.9075C214.989 60.733 213.635 59.7074 212.175 58.8522C208.585 56.7269 204.433 55.7465 200.271 56.0416C198.583 56.1534 196.913 56.4645 195.298 56.9685C194.206 57.3132 193.143 57.7437 192.118 58.2558C191.754 58.4231 191.483 58.5862 191.29 58.6849C191.195 58.7398 191.096 58.7872 190.994 58.8265C191.079 58.757 191.171 58.6966 191.269 58.6463C191.453 58.539 191.698 58.3631 192.08 58.1828C193.094 57.6413 194.153 57.1904 195.247 56.8355C198.877 55.6458 202.765 55.481 206.484 56.3592C210.202 57.2374 213.605 59.1247 216.32 61.8131C217.139 62.6187 217.885 63.4945 218.551 64.4306C218.796 64.7567 218.95 65.0313 219.07 65.2116C219.13 65.3014 219.184 65.3946 219.234 65.4905Z" fill="#263238"/>
<path d="M240.945 115.825L238.95 126.196C243.108 131.981 243.486 136.924 243.486 136.924L221.147 138.846C221.576 135.341 223.721 127.758 223.721 127.758L220.477 116.687L213.98 108.238L220.417 102.428C220.293 102.754 226.463 106.325 226.463 106.325L235.328 106.402C235.764 106.447 236.195 106.531 236.616 106.655L240.945 95.4253C240.945 95.4253 244.292 100.351 243.172 106.398C242.37 110.689 242.525 111.706 240.945 115.838" fill="#2964FC"/>
<path d="M224.744 107.946C224.87 108.059 224.98 108.189 225.07 108.332C225.336 108.713 225.561 109.122 225.739 109.551C225.999 110.193 226.144 110.876 226.168 111.568C226.204 112.425 226.022 113.276 225.64 114.044C225.263 114.82 224.666 115.467 223.924 115.906C223.315 116.255 222.626 116.44 221.924 116.443C221.457 116.447 220.993 116.358 220.56 116.181C220.442 116.132 220.328 116.073 220.221 116.005C220.148 115.962 220.109 115.932 220.114 115.928C220.686 116.172 221.303 116.293 221.924 116.284C222.593 116.258 223.244 116.068 223.821 115.73C224.518 115.3 225.079 114.681 225.439 113.945C225.804 113.21 225.984 112.397 225.962 111.577C225.943 110.905 225.812 110.241 225.576 109.611C225.34 109.036 225.062 108.48 224.744 107.946Z" fill="#263238"/>
<path d="M240.178 115.499C240.139 115.499 240.332 115.07 240.521 114.388C241.014 112.581 240.862 110.658 240.092 108.951C239.796 108.299 239.543 107.93 239.573 107.908C239.603 107.887 239.659 107.985 239.783 108.148C239.947 108.38 240.09 108.626 240.212 108.882C240.645 109.735 240.907 110.663 240.984 111.616C241.06 112.568 240.948 113.526 240.654 114.435C240.569 114.71 240.46 114.977 240.328 115.233C240.251 115.413 240.191 115.508 240.178 115.499Z" fill="#263238"/>
<g opacity="0.3">
<path d="M237.181 125.574C237.056 125.478 236.908 125.418 236.752 125.398C236.596 125.379 236.438 125.401 236.293 125.462C235.806 125.622 235.302 125.726 234.791 125.771C233.834 125.793 232.972 125.252 232.088 124.883C231.204 124.514 230.084 124.351 229.385 125.003C229.135 125.249 228.976 125.572 228.935 125.92C228.893 126.268 228.972 126.62 229.157 126.917C229.379 127.233 229.714 127.451 230.093 127.526C232.324 128.157 234.242 127.694 236.426 126.818C236.7 126.733 236.947 126.578 237.143 126.368C237.241 126.261 237.298 126.123 237.305 125.978C237.312 125.833 237.269 125.69 237.181 125.574Z" fill="black"/>
</g>
<g opacity="0.3">
<path d="M220.789 102.343C219.821 103.512 219.329 105.002 219.411 106.518C219.557 108.011 220.57 109.461 222.02 109.848C223.016 110.109 224.101 109.873 225.075 110.204C226.873 110.809 227.826 113.165 229.718 113.332C231.435 113.486 232.675 111.757 234.271 111.122C235.121 110.86 235.998 110.69 236.884 110.616C238.699 110.32 240.485 109.444 241.544 107.942C242.604 106.441 242.776 104.252 241.673 102.793C240.493 101.223 238.305 100.836 236.344 100.836C233.364 100.837 230.414 101.432 227.667 102.587C227.066 102.81 226.508 103.137 226.019 103.553C225.775 103.762 225.578 104.021 225.443 104.312C225.307 104.604 225.236 104.922 225.234 105.243" fill="black"/>
</g>
<path d="M246.334 101.154C246.282 100.761 246.125 100.39 245.88 100.078C245.636 99.7668 245.313 99.5261 244.944 99.3814C244.086 99.051 243.073 99.287 242.232 98.9137C241.181 98.4459 240.739 97.1972 240.473 96.0944C240.207 94.9916 239.954 93.7387 239.048 93.0306C238.422 92.5414 237.594 92.3956 236.903 91.975C235.903 91.3614 235.358 90.2372 234.676 89.2803C234.414 88.9129 234.107 88.5799 233.762 88.289L233.723 88.2332C232.268 86.4825 228.394 86.2551 226.72 87.8041L226.784 87.7441C223.661 87.9801 221.678 93.0263 221.635 96.2232C221.635 98.2142 222.257 100.295 221.506 102.136C221.077 103.209 220.193 104.071 219.859 105.179C219.629 105.939 219.675 106.756 219.988 107.487C220.302 108.217 220.862 108.814 221.571 109.172C222.28 109.53 223.093 109.628 223.866 109.447C224.64 109.266 225.325 108.818 225.802 108.182C225.755 108.993 226.424 109.71 227.188 109.985C227.972 110.205 228.794 110.255 229.599 110.13C231.316 109.989 233.333 109.701 234.221 108.195C234.817 109.092 235.989 109.457 237.061 109.38C238.109 109.357 239.144 109.144 240.117 108.753C240.075 108.697 240.038 108.638 240.005 108.577C240.166 108.517 240.321 108.442 240.469 108.354C241.292 107.852 241.803 106.762 241.417 105.874L242.352 106.959C243.147 106.502 243.745 105.768 244.033 104.897C244.321 104.027 244.279 103.08 243.914 102.239C244.465 102.467 244.965 102.801 245.386 103.222C245.715 102.994 245.976 102.681 246.143 102.317C246.31 101.954 246.376 101.552 246.334 101.154Z" fill="#263238"/>
<path d="M245.941 102.484C245.992 102.133 245.921 101.776 245.74 101.471C245.524 101.12 245.209 100.841 244.834 100.669C244.327 100.46 243.789 100.335 243.242 100.3C242.56 100.263 241.888 100.118 241.251 99.8706C240.894 99.7096 240.582 99.4636 240.341 99.154C240.095 98.8256 239.908 98.4568 239.788 98.0641C239.522 97.2745 239.462 96.4034 239.2 95.5753C239.076 95.1536 238.878 94.757 238.616 94.4038C238.349 94.0541 237.968 93.8084 237.539 93.7087C237.11 93.6014 236.63 93.61 236.162 93.5156C235.692 93.4314 235.262 93.1982 234.935 92.8505C234.282 92.1768 234.025 91.31 233.737 90.559C233.502 89.8357 233.108 89.1744 232.583 88.6238C232.015 88.0379 231.3 87.6147 230.513 87.3981C229.726 87.1816 228.896 87.1795 228.108 87.3922C227.766 87.4913 227.431 87.6102 227.104 87.7484C227.178 87.6916 227.259 87.6427 227.344 87.6025C227.581 87.4806 227.83 87.3814 228.086 87.3064C229.04 87.0209 230.06 87.051 230.995 87.3922C231.641 87.6291 232.227 88.004 232.712 88.4907C233.266 89.0536 233.683 89.7363 233.931 90.4861C234.222 91.2456 234.484 92.0781 235.093 92.696C235.389 93.0117 235.779 93.2238 236.205 93.301C236.634 93.3868 237.11 93.374 237.591 93.4941C238.07 93.6113 238.495 93.8901 238.792 94.2837C239.072 94.6571 239.28 95.079 239.406 95.5281C239.676 96.3863 239.728 97.2445 239.985 98.0169C240.072 98.3831 240.236 98.7262 240.468 99.0226C240.7 99.3189 240.994 99.5614 241.328 99.7333C241.946 99.9764 242.597 100.121 243.259 100.162C243.823 100.212 244.375 100.357 244.89 100.591C245.278 100.776 245.6 101.076 245.812 101.45C245.948 101.687 246.014 101.958 246.001 102.231C245.994 102.318 245.974 102.403 245.941 102.484Z" fill="#455A64"/>
<path d="M240.456 108.668C240.456 108.668 240.546 108.629 240.692 108.526C240.9 108.371 241.051 108.15 241.121 107.9C241.244 107.507 241.219 107.082 241.048 106.707C240.785 106.226 240.39 105.83 239.911 105.565C239.396 105.239 238.761 104.995 238.134 104.595C237.806 104.393 237.515 104.134 237.276 103.832C237.021 103.501 236.833 103.123 236.722 102.72C236.551 101.871 236.441 101.011 236.392 100.146C236.285 99.2874 236.019 98.3477 235.255 97.8199C234.491 97.2921 233.538 97.1419 232.856 96.4468C232.281 95.7766 231.918 94.9507 231.813 94.0738C231.68 93.2585 231.625 92.4818 231.44 91.7867C231.269 91.1428 230.978 90.5371 230.582 90.0016C229.996 89.2245 229.22 88.6112 228.329 88.2208C227.694 87.9591 227.312 87.9076 227.316 87.8818C227.409 87.8827 227.501 87.8943 227.591 87.9162C227.855 87.9696 228.113 88.0457 228.363 88.1436C229.289 88.5103 230.098 89.1196 230.706 89.9072C231.127 90.453 231.437 91.0753 231.62 91.7395C231.818 92.4518 231.878 93.2371 232.019 94.0352C232.119 94.8713 232.465 95.6586 233.015 96.2966C233.611 96.9274 234.577 97.0818 235.388 97.6397C235.785 97.9262 236.093 98.3188 236.276 98.7725C236.448 99.2029 236.561 99.6548 236.611 100.116C236.654 100.967 236.757 101.815 236.92 102.652C237.014 103.027 237.182 103.38 237.413 103.69C237.639 103.979 237.913 104.226 238.224 104.42C238.825 104.81 239.46 105.067 239.988 105.411C240.486 105.696 240.891 106.121 241.151 106.634C241.332 107.041 241.347 107.503 241.194 107.921C241.107 108.182 240.935 108.406 240.705 108.556C240.629 108.609 240.545 108.647 240.456 108.668Z" fill="#455A64"/>
<path d="M230.094 109.607C230.276 109.357 230.375 109.057 230.377 108.749C230.377 108.396 230.301 108.048 230.154 107.727C229.991 107.346 229.725 106.947 229.502 106.44C229.244 105.907 229.18 105.299 229.322 104.724C229.519 104.085 229.784 103.47 230.111 102.887C230.467 102.264 230.66 101.562 230.674 100.845C230.658 100.077 230.394 99.3349 229.923 98.7292C229.451 98.0941 228.867 97.5577 228.408 96.9312C228.176 96.6257 227.988 96.2891 227.85 95.9314C227.728 95.5841 227.654 95.2217 227.631 94.8544C227.606 94.1855 227.658 93.516 227.786 92.859C227.897 92.2915 227.979 91.7186 228.03 91.1426C228.13 90.3208 227.971 89.4881 227.575 88.7611C227.413 88.5053 227.218 88.2716 226.996 88.0659C227.069 88.1008 227.135 88.1472 227.193 88.2032C227.371 88.348 227.525 88.5204 227.648 88.7139C228.088 89.4462 228.278 90.3016 228.189 91.1512C228.145 91.7266 228.072 92.2995 227.97 92.8676C227.851 93.5097 227.806 94.1634 227.837 94.8157C227.86 95.1646 227.932 95.5084 228.052 95.837C228.184 96.1749 228.363 96.4926 228.584 96.781C229.013 97.3818 229.614 97.9139 230.103 98.5747C230.6 99.2186 230.877 100.005 230.892 100.819C230.876 101.573 230.671 102.31 230.296 102.964C229.971 103.534 229.705 104.135 229.502 104.758C229.356 105.3 229.408 105.877 229.648 106.384C229.858 106.861 230.111 107.273 230.27 107.672C230.413 108.012 230.479 108.38 230.463 108.749C230.453 108.982 230.382 109.208 230.257 109.405C230.216 109.482 230.161 109.551 230.094 109.607Z" fill="#455A64"/>
<path d="M222.564 109.255C222.506 109.198 222.463 109.127 222.439 109.049C222.361 108.824 222.361 108.579 222.439 108.354C222.564 108.001 222.791 107.693 223.092 107.47C223.48 107.197 223.847 106.894 224.19 106.565C224.565 106.138 224.81 105.612 224.894 105.05C224.974 104.401 224.868 103.742 224.589 103.149C224.261 102.467 224.114 101.712 224.16 100.957C224.312 100.167 224.587 99.4072 224.975 98.7038C225.347 98.0215 225.545 97.258 225.55 96.481C225.478 95.7505 225.323 95.0307 225.087 94.3355C224.687 93.1252 224.652 91.8242 224.984 90.5937C225.225 89.7679 225.713 89.0356 226.383 88.4954C226.564 88.3522 226.76 88.2285 226.967 88.1264C227.038 88.0867 227.114 88.0578 227.194 88.0405C226.925 88.1945 226.669 88.368 226.426 88.5597C225.802 89.1105 225.354 89.8329 225.139 90.6366C224.839 91.8389 224.891 93.1019 225.289 94.2754C225.536 94.9789 225.698 95.7092 225.774 96.451C225.775 97.2651 225.571 98.0664 225.181 98.781C224.807 99.4648 224.538 100.201 224.383 100.965C224.345 101.688 224.493 102.409 224.812 103.059C224.944 103.383 225.043 103.72 225.108 104.063C225.164 104.393 225.164 104.729 225.108 105.059C225.012 105.653 224.743 106.207 224.336 106.651C223.984 106.983 223.604 107.283 223.199 107.548C222.909 107.752 222.684 108.035 222.551 108.363C222.466 108.57 222.45 108.798 222.504 109.015C222.534 109.183 222.585 109.251 222.564 109.255Z" fill="#455A64"/>
</svg>
