<svg width="420" height="311" viewBox="0 0 420 311" fill="none" xmlns="http://www.w3.org/2000/svg">
<rect width="419.012" height="311" rx="13.9671" fill="white"/>
<rect x="19.6973" y="53.875" width="252.277" height="238.895" rx="4" fill="#F1F1F1"/>
<rect x="283.49" y="20.5" width="123.469" height="272.271" rx="4" fill="#F1F1F1"/>
<rect x="288.678" y="25.3711" width="113.09" height="34.2217" rx="4" fill="white"/>
<rect x="288.678" y="213.969" width="113.09" height="34.2217" rx="4" fill="white"/>
<rect x="288.68" y="252.035" width="113.09" height="20.7881" rx="4" fill="white"/>
<rect x="288.678" y="65.2109" width="113.09" height="143.143" rx="4" fill="white"/>
<rect x="293.826" y="71.6445" width="91.5078" height="5.74707" rx="2.87354" fill="#F1F1F1"/>
<rect x="293.826" y="81.7812" width="77.6953" height="5.74707" rx="2.87354" fill="#F1F1F1"/>
<rect x="293.826" y="91.9219" width="77.6953" height="5.74707" rx="2.87354" fill="#F1F1F1"/>
<rect x="293.826" y="109.57" width="91.5078" height="5.74707" rx="2.87354" fill="#F1F1F1"/>
<rect x="293.826" y="119.711" width="77.6953" height="5.74707" rx="2.87354" fill="#F1F1F1"/>
<rect x="293.826" y="129.848" width="77.6953" height="5.74707" rx="2.87354" fill="#F1F1F1"/>
<rect x="293.826" y="148.363" width="91.5078" height="5.74707" rx="2.87354" fill="#F1F1F1"/>
<rect x="293.826" y="158.5" width="77.6953" height="5.74707" rx="2.87354" fill="#F1F1F1"/>
<rect x="293.826" y="168.641" width="77.6953" height="5.74707" rx="2.87354" fill="#F1F1F1"/>
<rect x="19.6992" y="20.5" width="55.3276" height="20.708" rx="4" fill="#203D74"/>
<rect x="174.203" y="194.547" width="48.959" height="18.0327" rx="9.01636" fill="#203D74"/>
<rect x="83.1191" y="20.5" width="55.3276" height="20.708" rx="4" fill="#2964FD"/>
<rect x="146.539" y="20.5" width="55.3276" height="20.708" rx="4" fill="#010806"/>
<rect x="27.002" y="69.5703" width="232.275" height="24.4312" rx="12.2156" fill="white"/>
<rect x="27.002" y="194.547" width="139.416" height="17.4858" rx="8.74292" fill="white"/>
<circle cx="235.938" cy="266.009" r="6.81372" fill="#D9D9D9"/>
<circle cx="254.258" cy="266.009" r="6.81372" fill="#D9D9D9"/>
<rect x="28.7969" y="104.379" width="30.612" height="10.9377" rx="2.16528" fill="#010806"/>
<rect x="63.8867" y="104.379" width="30.612" height="10.9377" rx="2.16528" fill="#D9D9D9"/>
<rect x="98.9766" y="104.379" width="30.612" height="10.9377" rx="2.16528" fill="#D9D9D9"/>
<circle cx="211.116" cy="109.849" r="5.11426" fill="#D9D9D9"/>
<circle cx="224.866" cy="109.849" r="5.11426" fill="#D9D9D9"/>
<circle cx="238.616" cy="109.849" r="5.11426" fill="#D9D9D9"/>
<circle cx="252.368" cy="109.849" r="5.11426" fill="#D9D9D9"/>
<rect x="28.7969" y="143.625" width="232.275" height="7" rx="3.5" fill="white"/>
<rect x="28.7969" y="132.723" width="232.275" height="7" rx="3.5" fill="white"/>
<rect x="28.7969" y="154.527" width="196.92" height="7" rx="3.5" fill="white"/>
<rect x="28.7969" y="165.43" width="172.137" height="7" rx="3.5" fill="white"/>
</svg>
