<svg width="21" height="22" viewBox="0 0 21 22" fill="none" xmlns="http://www.w3.org/2000/svg">
<path d="M19.9473 1L18.8947 2.05263" stroke="black" stroke-width="2" stroke-linecap="round" stroke-linejoin="round"/>
<path d="M1 1L2.05263 2.05263" stroke="black" stroke-width="2" stroke-linecap="round" stroke-linejoin="round"/>
<path d="M19.9473 15.737L18.8947 14.6843" stroke="black" stroke-width="2" stroke-linecap="round" stroke-linejoin="round"/>
<path d="M1 15.737L2.05263 14.6843" stroke="black" stroke-width="2" stroke-linecap="round" stroke-linejoin="round"/>
<path d="M7.3158 17.8425H13.6316" stroke="black" stroke-width="2" stroke-linecap="round" stroke-linejoin="round"/>
<path d="M8.36853 21H12.5791" stroke="black" stroke-width="2" stroke-linecap="round" stroke-linejoin="round"/>
<path d="M10.4736 2.05273C6.26296 2.05273 4.10733 4.10567 4.15785 7.31589C4.18247 8.88104 4.68401 9.94747 5.7368 11.0001C6.78959 12.0527 7.3159 12.5791 7.31575 14.6843H13.6315C13.6317 12.5792 14.158 12.0527 15.2103 11.0002C16.2629 9.94758 16.7648 8.88104 16.7894 7.31589C16.8399 4.10567 14.6843 2.05273 10.4736 2.05273Z" stroke="black" stroke-width="2" stroke-linecap="round" stroke-linejoin="round"/>
</svg>
