<svg width="91" height="40" viewBox="0 0 91 40" fill="none" xmlns="http://www.w3.org/2000/svg">
<path d="M44.1759 35.0008C44.3226 35.1247 44.4793 35.2486 44.6336 35.3699C41.5578 37.4168 37.9443 38.5061 34.2497 38.5C31.324 38.4999 28.4388 37.8152 25.8251 36.5006C23.2113 35.1859 20.9415 33.2779 19.1971 30.929C17.4527 28.5802 16.2822 25.8557 15.7792 22.9735C15.2762 20.0914 15.4546 17.1315 16.3003 14.3306C17.1459 11.5297 18.6353 8.96563 20.6492 6.84337C22.6632 4.72111 25.1458 3.0996 27.8986 2.10852C30.6514 1.11745 33.5979 0.78432 36.5025 1.13578C39.407 1.48724 42.189 2.51354 44.626 4.13258C44.4743 4.26153 44.3226 4.38036 44.2088 4.51183C42.0186 6.40158 40.2614 8.7411 39.0568 11.3711C37.8522 14.0011 37.2285 16.8598 37.2281 19.7525C37.2287 22.6431 37.8493 25.5 39.0478 28.1304C40.2463 30.7608 41.995 33.1036 44.1759 35.0008ZM57.4269 1.00253C53.5838 1.00253 50.0164 2.15544 47.0481 4.13258C47.1998 4.26153 47.3515 4.38036 47.4653 4.51183C49.6555 6.40158 51.4127 8.7411 52.6173 11.3711C53.8219 14.0011 54.4456 16.8598 54.446 19.7525C54.4444 22.643 53.8234 25.4995 52.6249 28.1298C51.4264 30.76 49.6783 33.103 47.4982 35.0008C47.3515 35.1247 47.1948 35.2486 47.0405 35.3699C50.116 37.4175 53.7297 38.5068 57.4244 38.5C59.8868 38.501 62.3254 38.0168 64.6007 37.075C66.876 36.1333 68.9434 34.7525 70.6849 33.0115C72.4264 31.2705 73.8077 29.2034 74.7501 26.9284C75.6924 24.6534 76.1773 22.215 76.177 19.7525C76.1763 14.7799 74.2006 10.0112 70.6844 6.49501C67.1683 2.97886 62.3995 1.0032 57.4269 1.00253ZM45.837 5.02255C43.6035 6.77284 41.7981 9.00901 40.5578 11.5613C39.3176 14.1136 38.6752 16.9149 38.6794 19.7525C38.6744 22.5907 39.3165 25.3926 40.5568 27.9454C41.797 30.4982 43.6029 32.7347 45.837 34.485C48.0707 32.7342 49.8761 30.4976 51.1163 27.9449C52.3565 25.3922 52.9989 22.5905 52.9947 19.7525C52.9989 16.9149 52.3565 14.1136 51.1162 11.5613C49.876 9.00901 48.0706 6.77284 45.837 5.02255Z" fill="#949494"/>
</svg>
