<svg width="62" height="61" viewBox="0 0 62 61" fill="none" xmlns="http://www.w3.org/2000/svg">
<g opacity="0.5">
<mask id="mask0_488_3585" style="mask-type:alpha" maskUnits="userSpaceOnUse" x="0" y="0" width="62" height="61">
<circle cx="30.9496" cy="0.881259" r="0.881259" fill="#D9D9D9"/>
<circle cx="30.9496" cy="40.3725" r="0.881259" fill="#D9D9D9"/>
<circle cx="30.9496" cy="20.6269" r="0.881259" fill="#D9D9D9"/>
<circle cx="30.9496" cy="60.1181" r="0.881259" fill="#D9D9D9"/>
<circle cx="30.9496" cy="5.76163" r="0.881259" fill="#D9D9D9"/>
<circle cx="30.9496" cy="45.2524" r="0.881259" fill="#D9D9D9"/>
<circle cx="30.9496" cy="25.5067" r="0.881259" fill="#D9D9D9"/>
<circle cx="30.9496" cy="10.6415" r="0.881259" fill="#D9D9D9"/>
<circle cx="30.9496" cy="50.1332" r="0.881259" fill="#D9D9D9"/>
<circle cx="30.9496" cy="30.3871" r="0.881259" fill="#D9D9D9"/>
<circle cx="30.9496" cy="15.5219" r="0.881259" fill="#D9D9D9"/>
<circle cx="30.9496" cy="55.0131" r="0.881259" fill="#D9D9D9"/>
<circle cx="30.9496" cy="35.2675" r="0.881259" fill="#D9D9D9"/>
<circle cx="35.8305" cy="0.881259" r="0.881259" fill="#D9D9D9"/>
<circle cx="35.8305" cy="40.3725" r="0.881259" fill="#D9D9D9"/>
<circle cx="35.8305" cy="20.6269" r="0.881259" fill="#D9D9D9"/>
<circle cx="35.8305" cy="60.1181" r="0.881259" fill="#D9D9D9"/>
<circle cx="35.8305" cy="5.76163" r="0.881259" fill="#D9D9D9"/>
<circle cx="35.8305" cy="45.2524" r="0.881259" fill="#D9D9D9"/>
<circle cx="35.8305" cy="25.5067" r="0.881259" fill="#D9D9D9"/>
<circle cx="35.8305" cy="10.6415" r="0.881259" fill="#D9D9D9"/>
<circle cx="35.8305" cy="50.1327" r="0.881259" fill="#D9D9D9"/>
<circle cx="35.8305" cy="30.3876" r="0.881259" fill="#D9D9D9"/>
<circle cx="35.8305" cy="15.5219" r="0.881259" fill="#D9D9D9"/>
<circle cx="35.8305" cy="55.0131" r="0.881259" fill="#D9D9D9"/>
<circle cx="35.8305" cy="35.2675" r="0.881259" fill="#D9D9D9"/>
<circle cx="40.7113" cy="0.881259" r="0.881259" fill="#D9D9D9"/>
<circle cx="40.7113" cy="40.3725" r="0.881259" fill="#D9D9D9"/>
<circle cx="40.7113" cy="20.6269" r="0.881259" fill="#D9D9D9"/>
<circle cx="40.7113" cy="60.1181" r="0.881259" fill="#D9D9D9"/>
<circle cx="40.7113" cy="5.76163" r="0.881259" fill="#D9D9D9"/>
<circle cx="40.7113" cy="45.2524" r="0.881259" fill="#D9D9D9"/>
<circle cx="40.7113" cy="25.5067" r="0.881259" fill="#D9D9D9"/>
<circle cx="40.7113" cy="10.6415" r="0.881259" fill="#D9D9D9"/>
<circle cx="40.7113" cy="50.1327" r="0.881259" fill="#D9D9D9"/>
<circle cx="40.7113" cy="30.3876" r="0.881259" fill="#D9D9D9"/>
<circle cx="40.7113" cy="15.5219" r="0.881259" fill="#D9D9D9"/>
<circle cx="40.7113" cy="55.0131" r="0.881259" fill="#D9D9D9"/>
<circle cx="40.7113" cy="35.2675" r="0.881259" fill="#D9D9D9"/>
<circle cx="45.5902" cy="0.881259" r="0.881259" fill="#D9D9D9"/>
<circle cx="45.5902" cy="40.3725" r="0.881259" fill="#D9D9D9"/>
<circle cx="45.5902" cy="20.6269" r="0.881259" fill="#D9D9D9"/>
<circle cx="45.5902" cy="60.1181" r="0.881259" fill="#D9D9D9"/>
<circle cx="45.5902" cy="5.76163" r="0.881259" fill="#D9D9D9"/>
<circle cx="45.5902" cy="45.2524" r="0.881259" fill="#D9D9D9"/>
<circle cx="45.5902" cy="25.5067" r="0.881259" fill="#D9D9D9"/>
<circle cx="45.5902" cy="10.6415" r="0.881259" fill="#D9D9D9"/>
<circle cx="45.5902" cy="50.1327" r="0.881259" fill="#D9D9D9"/>
<circle cx="45.5902" cy="30.3876" r="0.881259" fill="#D9D9D9"/>
<circle cx="45.5902" cy="15.5219" r="0.881259" fill="#D9D9D9"/>
<circle cx="45.5902" cy="55.0131" r="0.881259" fill="#D9D9D9"/>
<circle cx="45.5902" cy="35.2675" r="0.881259" fill="#D9D9D9"/>
<circle cx="50.4711" cy="0.881259" r="0.881259" fill="#D9D9D9"/>
<circle cx="50.4711" cy="40.3725" r="0.881259" fill="#D9D9D9"/>
<circle cx="50.4711" cy="20.6269" r="0.881259" fill="#D9D9D9"/>
<circle cx="50.4711" cy="60.1181" r="0.881259" fill="#D9D9D9"/>
<circle cx="50.4711" cy="5.76163" r="0.881259" fill="#D9D9D9"/>
<circle cx="50.4711" cy="45.2524" r="0.881259" fill="#D9D9D9"/>
<circle cx="50.4711" cy="25.5067" r="0.881259" fill="#D9D9D9"/>
<circle cx="50.4711" cy="10.6415" r="0.881259" fill="#D9D9D9"/>
<circle cx="50.4711" cy="50.1327" r="0.881259" fill="#D9D9D9"/>
<circle cx="50.4711" cy="30.3876" r="0.881259" fill="#D9D9D9"/>
<circle cx="50.4711" cy="15.5219" r="0.881259" fill="#D9D9D9"/>
<circle cx="50.4711" cy="55.0131" r="0.881259" fill="#D9D9D9"/>
<circle cx="50.4711" cy="35.2675" r="0.881259" fill="#D9D9D9"/>
<circle cx="1.66642" cy="0.881259" r="0.881259" fill="#D9D9D9"/>
<circle cx="1.66642" cy="40.3725" r="0.881259" fill="#D9D9D9"/>
<circle cx="1.66642" cy="20.6269" r="0.881259" fill="#D9D9D9"/>
<circle cx="1.66642" cy="60.1181" r="0.881259" fill="#D9D9D9"/>
<circle cx="55.352" cy="0.881259" r="0.881259" fill="#D9D9D9"/>
<circle cx="55.352" cy="40.3725" r="0.881259" fill="#D9D9D9"/>
<circle cx="55.352" cy="20.6269" r="0.881259" fill="#D9D9D9"/>
<circle cx="55.352" cy="60.1181" r="0.881259" fill="#D9D9D9"/>
<circle cx="1.66642" cy="5.76163" r="0.881259" fill="#D9D9D9"/>
<circle cx="1.66642" cy="45.2524" r="0.881259" fill="#D9D9D9"/>
<circle cx="1.66642" cy="25.5067" r="0.881259" fill="#D9D9D9"/>
<circle cx="55.352" cy="5.76163" r="0.881259" fill="#D9D9D9"/>
<circle cx="55.352" cy="45.2524" r="0.881259" fill="#D9D9D9"/>
<circle cx="55.352" cy="25.5067" r="0.881259" fill="#D9D9D9"/>
<circle cx="1.66642" cy="10.6415" r="0.881259" fill="#D9D9D9"/>
<circle cx="1.66642" cy="50.1332" r="0.881259" fill="#D9D9D9"/>
<circle cx="1.66642" cy="30.3871" r="0.881259" fill="#D9D9D9"/>
<circle cx="55.352" cy="10.6415" r="0.881259" fill="#D9D9D9"/>
<circle cx="55.352" cy="50.1332" r="0.881259" fill="#D9D9D9"/>
<circle cx="55.352" cy="30.3871" r="0.881259" fill="#D9D9D9"/>
<circle cx="1.66642" cy="15.5219" r="0.881259" fill="#D9D9D9"/>
<circle cx="1.66642" cy="55.0131" r="0.881259" fill="#D9D9D9"/>
<circle cx="1.66642" cy="35.2675" r="0.881259" fill="#D9D9D9"/>
<circle cx="55.352" cy="15.5219" r="0.881259" fill="#D9D9D9"/>
<circle cx="55.352" cy="55.0131" r="0.881259" fill="#D9D9D9"/>
<circle cx="55.352" cy="35.2675" r="0.881259" fill="#D9D9D9"/>
<circle cx="6.54727" cy="0.881259" r="0.881259" fill="#D9D9D9"/>
<circle cx="6.54727" cy="40.3725" r="0.881259" fill="#D9D9D9"/>
<circle cx="6.54727" cy="20.6269" r="0.881259" fill="#D9D9D9"/>
<circle cx="6.54727" cy="60.1181" r="0.881259" fill="#D9D9D9"/>
<circle cx="60.2328" cy="0.881259" r="0.881259" fill="#D9D9D9"/>
<circle cx="60.2328" cy="40.3725" r="0.881259" fill="#D9D9D9"/>
<circle cx="60.2328" cy="20.6269" r="0.881259" fill="#D9D9D9"/>
<circle cx="60.2328" cy="60.1181" r="0.881259" fill="#D9D9D9"/>
<circle cx="6.54727" cy="5.76163" r="0.881259" fill="#D9D9D9"/>
<circle cx="6.54727" cy="45.2524" r="0.881259" fill="#D9D9D9"/>
<circle cx="6.54727" cy="25.5067" r="0.881259" fill="#D9D9D9"/>
<circle cx="60.2328" cy="5.76163" r="0.881259" fill="#D9D9D9"/>
<circle cx="60.2328" cy="45.2524" r="0.881259" fill="#D9D9D9"/>
<circle cx="60.2328" cy="25.5067" r="0.881259" fill="#D9D9D9"/>
<circle cx="6.54727" cy="10.6415" r="0.881259" fill="#D9D9D9"/>
<circle cx="6.54727" cy="50.1327" r="0.881259" fill="#D9D9D9"/>
<circle cx="6.54727" cy="30.3876" r="0.881259" fill="#D9D9D9"/>
<circle cx="60.2328" cy="10.6415" r="0.881259" fill="#D9D9D9"/>
<circle cx="60.2328" cy="50.1327" r="0.881259" fill="#D9D9D9"/>
<circle cx="60.2328" cy="30.3876" r="0.881259" fill="#D9D9D9"/>
<circle cx="6.54727" cy="15.5219" r="0.881259" fill="#D9D9D9"/>
<circle cx="6.54727" cy="55.0131" r="0.881259" fill="#D9D9D9"/>
<circle cx="6.54727" cy="35.2675" r="0.881259" fill="#D9D9D9"/>
<circle cx="60.2328" cy="15.5219" r="0.881259" fill="#D9D9D9"/>
<circle cx="60.2328" cy="55.0131" r="0.881259" fill="#D9D9D9"/>
<circle cx="60.2328" cy="35.2675" r="0.881259" fill="#D9D9D9"/>
<circle cx="11.4281" cy="0.881259" r="0.881259" fill="#D9D9D9"/>
<circle cx="11.4281" cy="40.3725" r="0.881259" fill="#D9D9D9"/>
<circle cx="11.4281" cy="20.6269" r="0.881259" fill="#D9D9D9"/>
<circle cx="11.4281" cy="60.1181" r="0.881259" fill="#D9D9D9"/>
<circle cx="11.4281" cy="5.76163" r="0.881259" fill="#D9D9D9"/>
<circle cx="11.4281" cy="45.2524" r="0.881259" fill="#D9D9D9"/>
<circle cx="11.4281" cy="25.5067" r="0.881259" fill="#D9D9D9"/>
<circle cx="11.4281" cy="10.6415" r="0.881259" fill="#D9D9D9"/>
<circle cx="11.4281" cy="50.1327" r="0.881259" fill="#D9D9D9"/>
<circle cx="11.4281" cy="30.3876" r="0.881259" fill="#D9D9D9"/>
<circle cx="11.4281" cy="15.5219" r="0.881259" fill="#D9D9D9"/>
<circle cx="11.4281" cy="55.0131" r="0.881259" fill="#D9D9D9"/>
<circle cx="11.4281" cy="35.2675" r="0.881259" fill="#D9D9D9"/>
<circle cx="16.307" cy="0.881259" r="0.881259" fill="#D9D9D9"/>
<circle cx="16.307" cy="40.3725" r="0.881259" fill="#D9D9D9"/>
<circle cx="16.307" cy="20.6269" r="0.881259" fill="#D9D9D9"/>
<circle cx="16.307" cy="60.1181" r="0.881259" fill="#D9D9D9"/>
<circle cx="16.307" cy="5.76163" r="0.881259" fill="#D9D9D9"/>
<circle cx="16.307" cy="45.2524" r="0.881259" fill="#D9D9D9"/>
<circle cx="16.307" cy="25.5067" r="0.881259" fill="#D9D9D9"/>
<circle cx="16.307" cy="10.6415" r="0.881259" fill="#D9D9D9"/>
<circle cx="16.307" cy="50.1327" r="0.881259" fill="#D9D9D9"/>
<circle cx="16.307" cy="30.3876" r="0.881259" fill="#D9D9D9"/>
<circle cx="16.307" cy="15.5219" r="0.881259" fill="#D9D9D9"/>
<circle cx="16.307" cy="55.0131" r="0.881259" fill="#D9D9D9"/>
<circle cx="16.307" cy="35.2675" r="0.881259" fill="#D9D9D9"/>
<circle cx="21.1879" cy="0.881259" r="0.881259" fill="#D9D9D9"/>
<circle cx="21.1879" cy="40.3725" r="0.881259" fill="#D9D9D9"/>
<circle cx="21.1879" cy="20.6269" r="0.881259" fill="#D9D9D9"/>
<circle cx="21.1879" cy="60.1181" r="0.881259" fill="#D9D9D9"/>
<circle cx="21.1879" cy="5.76163" r="0.881259" fill="#D9D9D9"/>
<circle cx="21.1879" cy="45.2524" r="0.881259" fill="#D9D9D9"/>
<circle cx="21.1879" cy="25.5067" r="0.881259" fill="#D9D9D9"/>
<circle cx="21.1879" cy="10.6415" r="0.881259" fill="#D9D9D9"/>
<circle cx="21.1879" cy="50.1327" r="0.881259" fill="#D9D9D9"/>
<circle cx="21.1879" cy="30.3876" r="0.881259" fill="#D9D9D9"/>
<circle cx="21.1879" cy="15.5219" r="0.881259" fill="#D9D9D9"/>
<circle cx="21.1879" cy="55.0131" r="0.881259" fill="#D9D9D9"/>
<circle cx="21.1879" cy="35.2675" r="0.881259" fill="#D9D9D9"/>
<circle cx="26.0688" cy="0.881259" r="0.881259" fill="#D9D9D9"/>
<circle cx="26.0688" cy="40.3725" r="0.881259" fill="#D9D9D9"/>
<circle cx="26.0688" cy="20.6269" r="0.881259" fill="#D9D9D9"/>
<circle cx="26.0688" cy="60.1181" r="0.881259" fill="#D9D9D9"/>
<circle cx="26.0688" cy="5.76163" r="0.881259" fill="#D9D9D9"/>
<circle cx="26.0688" cy="45.2524" r="0.881259" fill="#D9D9D9"/>
<circle cx="26.0688" cy="25.5067" r="0.881259" fill="#D9D9D9"/>
<circle cx="26.0688" cy="10.6415" r="0.881259" fill="#D9D9D9"/>
<circle cx="26.0688" cy="50.1332" r="0.881259" fill="#D9D9D9"/>
<circle cx="26.0688" cy="30.3871" r="0.881259" fill="#D9D9D9"/>
<circle cx="26.0688" cy="15.5219" r="0.881259" fill="#D9D9D9"/>
<circle cx="26.0688" cy="55.0131" r="0.881259" fill="#D9D9D9"/>
<circle cx="26.0688" cy="35.2675" r="0.881259" fill="#D9D9D9"/>
</mask>
<g mask="url(#mask0_488_3585)">
<circle cx="30.9231" cy="30.6575" r="29.6184" fill="#2964FD"/>
</g>
</g>
</svg>
