<svg width="91" height="40" viewBox="0 0 91 40" fill="none" xmlns="http://www.w3.org/2000/svg">
<g clip-path="url(#clip0_1816_50604)">
<path fill-rule="evenodd" clip-rule="evenodd" d="M90.2591 20.2979C90.2591 13.9152 87.1674 8.87891 81.2585 8.87891C75.3245 8.87891 71.7344 13.9152 71.7344 20.248C71.7344 27.7526 75.9727 31.5421 82.0564 31.5421C85.0233 31.5421 87.267 30.8691 88.9625 29.9216V24.9352C87.267 25.7829 85.3223 26.3065 82.8542 26.3065C80.4356 26.3065 78.2914 25.4588 78.0173 22.5168H90.2093C90.2093 22.1927 90.2591 20.8962 90.2591 20.2979ZM77.9426 17.9293C77.9426 15.1119 79.6627 13.9401 81.2334 13.9401C82.7543 13.9401 84.3751 15.1119 84.3751 17.9293H77.9426Z" fill="#949494"/>
<path fill-rule="evenodd" clip-rule="evenodd" d="M62.1101 8.87891C59.6666 8.87891 58.0958 10.0258 57.2233 10.8236L56.8991 9.27781H51.4141V38.3486L57.6471 37.0274L57.672 29.9714C58.5697 30.6198 59.8912 31.5421 62.0852 31.5421C66.5481 31.5421 70.6121 27.952 70.6121 20.0485C70.5869 12.8182 66.4731 8.87891 62.1101 8.87891ZM60.614 26.0572C59.1432 26.0572 58.2704 25.5336 57.672 24.8854L57.6471 15.6355C58.2953 14.9125 59.193 14.4138 60.614 14.4138C62.883 14.4138 64.4537 16.9569 64.4537 20.2231C64.4537 23.5639 62.9079 26.0572 60.614 26.0572Z" fill="#949494"/>
<path fill-rule="evenodd" clip-rule="evenodd" d="M42.8359 7.40757L49.0939 6.06123V1L42.8359 2.32141V7.40757Z" fill="#949494"/>
<path d="M49.0939 9.30469H42.8359V31.1204H49.0939V9.30469Z" fill="#949494"/>
<path fill-rule="evenodd" clip-rule="evenodd" d="M36.1281 11.1496L35.7292 9.30458H30.3438V31.1202H36.5768V16.3355C38.048 14.4157 40.5412 14.7647 41.3142 15.039V9.30458C40.5163 9.0054 37.5993 8.4569 36.1281 11.1496Z" fill="#949494"/>
<path fill-rule="evenodd" clip-rule="evenodd" d="M23.6631 3.89062L17.5796 5.18711L17.5547 25.1578C17.5547 28.8478 20.3222 31.5655 24.0122 31.5655C26.0566 31.5655 27.5525 31.1915 28.3754 30.7425V25.6814C27.5774 26.0055 23.6382 27.1524 23.6382 23.4624V14.6115H28.3754V9.30091H23.6382L23.6631 3.89062Z" fill="#949494"/>
<path fill-rule="evenodd" clip-rule="evenodd" d="M6.80789 15.6355C6.80789 14.6632 7.60572 14.2892 8.92714 14.2892C10.822 14.2892 13.2155 14.8626 15.1104 15.8849V10.0258C13.041 9.20301 10.9965 8.87891 8.92714 8.87891C3.86587 8.87891 0.5 11.5217 0.5 15.9347C0.5 22.816 9.9743 21.719 9.9743 24.6859C9.9743 25.8328 8.97702 26.2068 7.5808 26.2068C5.51142 26.2068 2.86857 25.3591 0.774256 24.2122V30.146C3.09297 31.1432 5.43662 31.5673 7.5808 31.5673C12.7667 31.5673 16.3321 28.9991 16.3321 24.5363C16.3071 17.1065 6.80789 18.4279 6.80789 15.6355Z" fill="#949494"/>
</g>
<defs>
<clipPath id="clip0_1816_50604">
<rect width="90" height="40" fill="white" transform="translate(0.5)"/>
</clipPath>
</defs>
</svg>
