<svg width="108" height="107" viewBox="0 0 108 107" fill="none" xmlns="http://www.w3.org/2000/svg">
<rect width="107.023" height="107" rx="3.03611" fill="black"/>
<rect width="8" height="107" fill="url(#paint0_linear_2038_11911)"/>
<rect width="8" height="107" fill="url(#paint1_linear_2038_11911)"/>
<rect x="12" width="9" height="107" fill="url(#paint2_linear_2038_11911)"/>
<rect x="12" width="9" height="107" fill="url(#paint3_linear_2038_11911)"/>
<rect x="25" width="8" height="107" fill="url(#paint4_linear_2038_11911)"/>
<rect x="25" width="8" height="107" fill="url(#paint5_linear_2038_11911)"/>
<rect x="37" width="8" height="107" fill="url(#paint6_linear_2038_11911)"/>
<rect x="37" width="8" height="107" fill="url(#paint7_linear_2038_11911)"/>
<rect x="49" width="9" height="107" fill="url(#paint8_linear_2038_11911)"/>
<rect x="49" width="9" height="107" fill="url(#paint9_linear_2038_11911)"/>
<rect x="62" width="8" height="107" fill="url(#paint10_linear_2038_11911)"/>
<rect x="62" width="8" height="107" fill="url(#paint11_linear_2038_11911)"/>
<rect x="74" width="8" height="107" fill="url(#paint12_linear_2038_11911)"/>
<rect x="74" width="8" height="107" fill="url(#paint13_linear_2038_11911)"/>
<rect x="86" width="9" height="107" fill="url(#paint14_linear_2038_11911)"/>
<rect x="86" width="9" height="107" fill="url(#paint15_linear_2038_11911)"/>
<rect x="99" width="8" height="107" fill="url(#paint16_linear_2038_11911)"/>
<rect x="99" width="8" height="107" fill="url(#paint17_linear_2038_11911)"/>
<path d="M0 49.6133C0 47.4041 1.79086 45.6133 4 45.6133H8.23077V81.6229C8.23077 86.1686 4.54573 89.8537 0 89.8537V49.6133Z" fill="url(#paint18_linear_2038_11911)"/>
<path d="M12.3477 78.0781C12.3477 75.869 14.1385 74.0781 16.3477 74.0781H20.5784V88.8249C20.5784 93.3706 16.8934 97.0557 12.3477 97.0557V78.0781Z" fill="url(#paint19_linear_2038_11911)"/>
<path d="M24.6914 48.2422C24.6914 46.033 26.4823 44.2422 28.6914 44.2422H32.9222V65.848C32.9222 70.3937 29.2371 74.0787 24.6914 74.0787V48.2422Z" fill="url(#paint20_linear_2038_11911)"/>
<path d="M37.0391 58.5273C37.0391 56.3182 38.8299 54.5273 41.0391 54.5273H45.2698V59.6716C45.2698 64.2173 41.5848 67.9023 37.0391 67.9023V58.5273Z" fill="url(#paint21_linear_2038_11911)"/>
<path d="M49.3848 27.6641C49.3848 25.4549 51.1756 23.6641 53.3848 23.6641H57.6155V48.6993C57.6155 53.2451 53.9305 56.9301 49.3848 56.9301V27.6641Z" fill="url(#paint22_linear_2038_11911)"/>
<path d="M61.7305 73.6133C61.7305 71.4041 63.5213 69.6133 65.7305 69.6133H69.9612V93.6197C69.9612 98.1654 66.2762 101.85 61.7305 101.85V73.6133Z" fill="url(#paint23_linear_2038_11911)"/>
<path d="M74.0781 18.7461C74.0781 16.537 75.869 14.7461 78.0781 14.7461H82.3089V28.807C82.3089 33.3527 78.6239 37.0378 74.0781 37.0378V18.7461Z" fill="url(#paint24_linear_2038_11911)"/>
<path d="M86.4219 24.5781C86.4219 22.369 88.2127 20.5781 90.4219 20.5781H94.6526V24.6935C94.6526 29.2392 90.9676 32.9243 86.4219 32.9243V24.5781Z" fill="url(#paint25_linear_2038_11911)"/>
<path d="M98.7695 13.6016C98.7695 11.3924 100.56 9.60156 102.77 9.60156H107V30.1785C107 34.7242 103.315 38.4093 98.7695 38.4093V13.6016Z" fill="url(#paint26_linear_2038_11911)"/>
<defs>
<linearGradient id="paint0_linear_2038_11911" x1="4" y1="0" x2="4" y2="107" gradientUnits="userSpaceOnUse">
<stop offset="0.0729167" stop-opacity="0.39"/>
<stop offset="0.494792" stop-color="white" stop-opacity="0.46"/>
<stop offset="0.953125" stop-opacity="0.33"/>
</linearGradient>
<linearGradient id="paint1_linear_2038_11911" x1="4" y1="0" x2="4" y2="107" gradientUnits="userSpaceOnUse">
<stop offset="0.203125" stop-opacity="0.22"/>
<stop offset="0.494792" stop-color="white" stop-opacity="0"/>
<stop offset="0.734375" stop-opacity="0.26"/>
</linearGradient>
<linearGradient id="paint2_linear_2038_11911" x1="16.5" y1="0" x2="16.5" y2="107" gradientUnits="userSpaceOnUse">
<stop offset="0.0729167" stop-opacity="0.39"/>
<stop offset="0.494792" stop-color="white" stop-opacity="0.46"/>
<stop offset="0.953125" stop-opacity="0.33"/>
</linearGradient>
<linearGradient id="paint3_linear_2038_11911" x1="16.5" y1="0" x2="16.5" y2="107" gradientUnits="userSpaceOnUse">
<stop offset="0.203125" stop-opacity="0.22"/>
<stop offset="0.494792" stop-color="white" stop-opacity="0"/>
<stop offset="0.734375" stop-opacity="0.26"/>
</linearGradient>
<linearGradient id="paint4_linear_2038_11911" x1="29" y1="0" x2="29" y2="107" gradientUnits="userSpaceOnUse">
<stop offset="0.0729167" stop-opacity="0.39"/>
<stop offset="0.494792" stop-color="white" stop-opacity="0.46"/>
<stop offset="0.953125" stop-opacity="0.33"/>
</linearGradient>
<linearGradient id="paint5_linear_2038_11911" x1="29" y1="0" x2="29" y2="107" gradientUnits="userSpaceOnUse">
<stop offset="0.203125" stop-opacity="0.22"/>
<stop offset="0.494792" stop-color="white" stop-opacity="0"/>
<stop offset="0.734375" stop-opacity="0.26"/>
</linearGradient>
<linearGradient id="paint6_linear_2038_11911" x1="41" y1="0" x2="41" y2="107" gradientUnits="userSpaceOnUse">
<stop offset="0.0729167" stop-opacity="0.39"/>
<stop offset="0.494792" stop-color="white" stop-opacity="0.46"/>
<stop offset="0.953125" stop-opacity="0.33"/>
</linearGradient>
<linearGradient id="paint7_linear_2038_11911" x1="41" y1="0" x2="41" y2="107" gradientUnits="userSpaceOnUse">
<stop offset="0.203125" stop-opacity="0.22"/>
<stop offset="0.494792" stop-color="white" stop-opacity="0"/>
<stop offset="0.734375" stop-opacity="0.26"/>
</linearGradient>
<linearGradient id="paint8_linear_2038_11911" x1="53.5" y1="0" x2="53.5" y2="107" gradientUnits="userSpaceOnUse">
<stop offset="0.0729167" stop-opacity="0.39"/>
<stop offset="0.494792" stop-color="white" stop-opacity="0.46"/>
<stop offset="0.953125" stop-opacity="0.33"/>
</linearGradient>
<linearGradient id="paint9_linear_2038_11911" x1="53.5" y1="0" x2="53.5" y2="107" gradientUnits="userSpaceOnUse">
<stop offset="0.203125" stop-opacity="0.22"/>
<stop offset="0.494792" stop-color="white" stop-opacity="0"/>
<stop offset="0.734375" stop-opacity="0.26"/>
</linearGradient>
<linearGradient id="paint10_linear_2038_11911" x1="66" y1="0" x2="66" y2="107" gradientUnits="userSpaceOnUse">
<stop offset="0.0729167" stop-opacity="0.39"/>
<stop offset="0.494792" stop-color="white" stop-opacity="0.46"/>
<stop offset="0.953125" stop-opacity="0.33"/>
</linearGradient>
<linearGradient id="paint11_linear_2038_11911" x1="66" y1="0" x2="66" y2="107" gradientUnits="userSpaceOnUse">
<stop offset="0.203125" stop-opacity="0.22"/>
<stop offset="0.494792" stop-color="white" stop-opacity="0"/>
<stop offset="0.734375" stop-opacity="0.26"/>
</linearGradient>
<linearGradient id="paint12_linear_2038_11911" x1="78" y1="0" x2="78" y2="107" gradientUnits="userSpaceOnUse">
<stop offset="0.0729167" stop-opacity="0.39"/>
<stop offset="0.494792" stop-color="white" stop-opacity="0.46"/>
<stop offset="0.953125" stop-opacity="0.33"/>
</linearGradient>
<linearGradient id="paint13_linear_2038_11911" x1="78" y1="0" x2="78" y2="107" gradientUnits="userSpaceOnUse">
<stop offset="0.203125" stop-opacity="0.22"/>
<stop offset="0.494792" stop-color="white" stop-opacity="0"/>
<stop offset="0.734375" stop-opacity="0.26"/>
</linearGradient>
<linearGradient id="paint14_linear_2038_11911" x1="90.5" y1="0" x2="90.5" y2="107" gradientUnits="userSpaceOnUse">
<stop offset="0.0729167" stop-opacity="0.39"/>
<stop offset="0.494792" stop-color="white" stop-opacity="0.46"/>
<stop offset="0.953125" stop-opacity="0.33"/>
</linearGradient>
<linearGradient id="paint15_linear_2038_11911" x1="90.5" y1="0" x2="90.5" y2="107" gradientUnits="userSpaceOnUse">
<stop offset="0.203125" stop-opacity="0.22"/>
<stop offset="0.494792" stop-color="white" stop-opacity="0"/>
<stop offset="0.734375" stop-opacity="0.26"/>
</linearGradient>
<linearGradient id="paint16_linear_2038_11911" x1="103" y1="0" x2="103" y2="107" gradientUnits="userSpaceOnUse">
<stop offset="0.0729167" stop-opacity="0.39"/>
<stop offset="0.494792" stop-color="white" stop-opacity="0.46"/>
<stop offset="0.953125" stop-opacity="0.33"/>
</linearGradient>
<linearGradient id="paint17_linear_2038_11911" x1="103" y1="0" x2="103" y2="107" gradientUnits="userSpaceOnUse">
<stop offset="0.203125" stop-opacity="0.22"/>
<stop offset="0.494792" stop-color="white" stop-opacity="0"/>
<stop offset="0.734375" stop-opacity="0.26"/>
</linearGradient>
<linearGradient id="paint18_linear_2038_11911" x1="4.11538" y1="45.6133" x2="4.11538" y2="89.8537" gradientUnits="userSpaceOnUse">
<stop stop-color="#6587FF"/>
<stop offset="1" stop-color="#FFA6A6"/>
</linearGradient>
<linearGradient id="paint19_linear_2038_11911" x1="16.463" y1="74.0781" x2="16.463" y2="97.0557" gradientUnits="userSpaceOnUse">
<stop stop-color="#6587FF"/>
<stop offset="1" stop-color="#FFA6A6"/>
</linearGradient>
<linearGradient id="paint20_linear_2038_11911" x1="28.8068" y1="44.2422" x2="28.8068" y2="74.0787" gradientUnits="userSpaceOnUse">
<stop stop-color="#6587FF"/>
<stop offset="1" stop-color="#FFA6A6"/>
</linearGradient>
<linearGradient id="paint21_linear_2038_11911" x1="41.1544" y1="54.5273" x2="41.1544" y2="67.9023" gradientUnits="userSpaceOnUse">
<stop stop-color="#6587FF"/>
<stop offset="1" stop-color="#FFA6A6"/>
</linearGradient>
<linearGradient id="paint22_linear_2038_11911" x1="53.5002" y1="23.6641" x2="53.5002" y2="56.9301" gradientUnits="userSpaceOnUse">
<stop stop-color="#6587FF"/>
<stop offset="1" stop-color="#FFA6A6"/>
</linearGradient>
<linearGradient id="paint23_linear_2038_11911" x1="65.8459" y1="69.6133" x2="65.8459" y2="101.85" gradientUnits="userSpaceOnUse">
<stop stop-color="#6587FF"/>
<stop offset="1" stop-color="#FFA6A6"/>
</linearGradient>
<linearGradient id="paint24_linear_2038_11911" x1="78.1935" y1="14.7461" x2="78.1935" y2="37.0378" gradientUnits="userSpaceOnUse">
<stop stop-color="#6587FF"/>
<stop offset="1" stop-color="#FFA6A6"/>
</linearGradient>
<linearGradient id="paint25_linear_2038_11911" x1="90.5373" y1="20.5781" x2="90.5373" y2="32.9243" gradientUnits="userSpaceOnUse">
<stop stop-color="#6587FF"/>
<stop offset="1" stop-color="#FFA6A6"/>
</linearGradient>
<linearGradient id="paint26_linear_2038_11911" x1="102.885" y1="9.60156" x2="102.885" y2="38.4093" gradientUnits="userSpaceOnUse">
<stop stop-color="#6587FF"/>
<stop offset="1" stop-color="#FFA6A6"/>
</linearGradient>
</defs>
</svg>
