<svg width="91" height="40" viewBox="0 0 91 40" fill="none" xmlns="http://www.w3.org/2000/svg">
<g clip-path="url(#clip0_1816_50606)">
<path d="M65.9187 7.12914C63.8281 6.36807 61.6185 5.98584 59.3937 6.0004C52.1937 6.0004 47.1125 9.63034 47.075 14.8315C47.03 18.6565 50.69 20.8089 53.4538 22.0914C56.2925 23.4039 57.2412 24.2289 57.2337 25.4101C57.215 27.1988 54.965 28.0088 52.8763 28.0088C50.0037 28.0088 48.4287 27.6076 46.01 26.6026L45.1138 26.1863L44.0975 32.1787C45.845 32.91 48.995 33.5362 52.2537 33.585C59.9075 33.585 64.91 29.9813 64.97 24.4389C65.03 21.3902 63.0575 19.0764 58.8913 17.1715C56.3638 15.934 54.7887 15.1053 54.7887 13.849C54.7887 12.739 56.135 11.5541 58.9475 11.5541C60.8179 11.5092 62.6768 11.858 64.4038 12.5778L65.0788 12.8815L66.095 7.09163L65.9187 7.12914ZM84.605 6.49165H78.98C77.2287 6.49165 75.92 6.96789 75.1512 8.70786L64.3325 33.21H71.9863L73.5163 29.1975L82.8538 29.205C83.0825 30.1425 83.7538 33.21 83.7538 33.21H90.5L84.605 6.49165ZM36.725 6.26665H44.0112L39.455 33H32.165L36.725 6.25915V6.26665ZM18.2038 21.0002L18.9613 24.7126L26.09 6.49165H33.8113L22.3325 33.1725H14.63L8.33 10.5753C8.22839 10.2029 7.98646 9.88441 7.655 9.6866C5.38915 8.50962 2.9857 7.61905 0.5 7.03538L0.59375 6.47289H12.335C13.925 6.53289 15.2075 7.03539 15.6462 8.73786L18.2038 21.0114V21.0002ZM75.6087 23.7264L78.515 16.249C78.4775 16.324 79.115 14.704 79.4825 13.699L79.9812 16.0052L81.665 23.7189H75.6087V23.7264Z" fill="#949494"/>
</g>
<defs>
<clipPath id="clip0_1816_50606">
<rect width="90" height="40" fill="white" transform="translate(0.5)"/>
</clipPath>
</defs>
</svg>
